<svg id="Layer_1" data-name="Layer 1" xmlns="http://www.w3.org/2000/svg" viewBox="0 0 612 273.44"><defs><style>.cls-1{fill:#fff;}</style></defs><path class="cls-1" d="M386.94,157v53.5H508.59V157Zm34.24,38.15H407.09v-24H411V191.8h10.16Zm14.79,0h-3.92v-24H436Zm28.43-20.65h-7.07v20.65h-3.92V174.52h-7.06v-3.36h18Zm24,0h-9.65V181h9v3.29h-9v7.53h9.65v3.34H474.8v-24h13.58Z"/><path class="cls-1" d="M279.32,176.06a5.65,5.65,0,0,0-4.93,2.58,12.53,12.53,0,0,0-1.77,7.14q0,9.45,7.19,9.46a14.83,14.83,0,0,0,4.21-.61,42.76,42.76,0,0,0,4.1-1.45v7.48a22.65,22.65,0,0,1-9.27,1.81q-7.41,0-11.37-4.3t-4-12.43a19.81,19.81,0,0,1,1.92-8.94,13.7,13.7,0,0,1,5.51-5.93,16.68,16.68,0,0,1,8.46-2.07,23.29,23.29,0,0,1,10.15,2.31l-2.71,7a32.1,32.1,0,0,0-3.63-1.43A12.64,12.64,0,0,0,279.32,176.06Z"/><path class="cls-1" d="M313.37,202l-6.7-23.59h-.2q.46,6,.47,9.37V202H299.1V169.27h11.78l6.84,23.25h.18l6.7-23.25h11.8V202h-8.13V187.66c0-.74,0-1.57,0-2.48s.13-3.15.31-6.7h-.21L321.79,202Z"/><path class="cls-1" d="M369.47,192.08a9.68,9.68,0,0,1-1.55,5.41,10.08,10.08,0,0,1-4.46,3.67,16.42,16.42,0,0,1-6.83,1.31,27.38,27.38,0,0,1-5.49-.46,20,20,0,0,1-4.61-1.6v-7.89a25.66,25.66,0,0,0,5.26,2,19.44,19.44,0,0,0,5,.73,4.92,4.92,0,0,0,2.89-.68,2.11,2.11,0,0,0,.92-1.76,1.93,1.93,0,0,0-.37-1.18,4.52,4.52,0,0,0-1.19-1c-.54-.34-2-1-4.36-2.1a20.66,20.66,0,0,1-4.8-2.83,8.68,8.68,0,0,1-2.38-3.13,10.52,10.52,0,0,1-.77-4.19,8.41,8.41,0,0,1,3.29-7.06q3.3-2.54,9-2.53a25.38,25.38,0,0,1,10.38,2.35L366.76,178a19.7,19.7,0,0,0-7.93-2.1,4.16,4.16,0,0,0-2.51.6,1.83,1.83,0,0,0-.79,1.5,2.18,2.18,0,0,0,1,1.73,38.18,38.18,0,0,0,5.41,2.78,15,15,0,0,1,5.88,4.09A8.86,8.86,0,0,1,369.47,192.08Z"/><path class="cls-1" d="M126.34,142.07s-12.47,1.31-28.07,1.31c-12.67.1-19-3.34-19-17.32v-22.7C79.22,92.11,86.61,85,99.28,85h12.26c12.77,0,19.15,7.09,19.15,18.34v16.42c0,.91-.1,1.21-1,1.21H91.78v3.65c0,8.11,1.22,8.31,8.41,8.31h26.35Zm-8.21-36.28c0-9.83-2.74-10.53-9.22-10.53H102c-6.59,0-10.24.4-10.24,10.53v5.27l26.35-.2Z"/><path class="cls-1" d="M141.27,85.22h12.56v4.46c4.46-2.23,10.74-5.07,16.11-5.07h3.15c12.36,0,18.64,2.94,18.64,16.73V143H179.17V103.36c0-6.18-2.44-7.7-8.42-7.7h-2.83c-4.36,0-9.53,2.23-14.09,3.55V143H141.27Z"/><path class="cls-1" d="M316.17,143H303.6v-4.45c-4.46,2.13-11.25,5.06-16.62,5.06h-3c-12.46,0-18.74-2.93-18.74-16.81V85.22h12.56v39.52c0,6.29,2.44,7.8,8.51,7.8H289c4.46,0,10-2.32,14.59-3.54V85.22h12.57Z"/><rect class="cls-1" x="329.94" y="85.22" width="12.56" height="57.75"/><path class="cls-1" d="M356.28,85.22h12.57v5.47c4.46-2.53,10.74-6,16.11-6h6.69V96h-8.72c-4.35,0-9.52,1.63-14.08,3.75V143H356.28Z"/><path class="cls-1" d="M447.87,103.87v20.26c0,14-6.38,19.35-19.15,19.35H414.94c-12.67,0-19.05-5.36-19.05-19.35V103.87c0-14,6.38-19.36,19.05-19.36h13.78c12.77,0,19.15,5.37,19.15,19.36m-12.56,20.37v-21c0-6.18-2.44-8.21-8.52-8.21h-9.93c-6,0-8.41,2-8.41,8.21v21c0,6.28,2.43,8.3,8.41,8.3h9.93c6.08,0,8.52-2,8.52-8.3"/><path class="cls-1" d="M459.05,85.22h12.57v4.46c4.46-2.23,10.74-5.07,16.11-5.07h3.14c12.36,0,18.65,2.94,18.65,16.73V143H497V103.36c0-6.18-2.43-7.7-8.41-7.7H485.7c-4.35,0-9.52,2.23-14.08,3.55V143H459.05Z"/><rect class="cls-1" x="329.94" y="62.92" width="12.56" height="12.27"/><path class="cls-1" d="M235.34,84.51H221.56c-12.67,0-19.05,5.37-19.05,19.36v20.27c0,14,6.38,19.34,19.05,19.34h5.28v-5.76l12.35,21.91a27.86,27.86,0,0,0,2.89,0V142.84c8.27-1.79,12.41-7.45,12.41-18.7V103.87c0-14-6.38-19.36-19.15-19.36m-1.92,48h-9.93c-6,0-8.41-2-8.41-8.3v-21c0-6.18,2.43-8.21,8.41-8.21h9.93c6.08,0,8.51,2,8.51,8.21v21c0,6.28-2.43,8.3-8.51,8.3"/><path class="cls-1" d="M526.57,85a6.72,6.72,0,1,1-6.72-6.72A6.73,6.73,0,0,1,526.57,85Zm-12.35,0a5.64,5.64,0,1,0,5.61-5.61A5.64,5.64,0,0,0,514.22,85Zm3.11-3.75h2.59c.89,0,2.63,0,2.63,2a1.72,1.72,0,0,1-1.42,1.84c1,.08,1.1.75,1.25,1.71a7,7,0,0,0,.39,2h-1.6c0-.35-.29-2.27-.29-2.38-.1-.43-.25-.64-.78-.64h-1.31v3h-1.46Zm1.42,3.31h1.17a1,1,0,0,0,1.14-1.07c0-1-.71-1-1.1-1h-1.21Z"/></svg>