<svg id="Layer_1" data-name="Layer 1" xmlns="http://www.w3.org/2000/svg" viewBox="0 0 612 273.44"><defs><style>.cls-1{fill:#fff;}</style></defs><path class="cls-1" d="M290.57,185.71a7.86,7.86,0,0,1-1.26,4.41,8.2,8.2,0,0,1-3.63,3,13.34,13.34,0,0,1-5.57,1.07,22.58,22.58,0,0,1-4.47-.37,16.56,16.56,0,0,1-3.76-1.31v-6.42a21.86,21.86,0,0,0,4.29,1.65,16.2,16.2,0,0,0,4.09.59,3.89,3.89,0,0,0,2.35-.56,1.7,1.7,0,0,0,.75-1.43,1.61,1.61,0,0,0-.3-1,3.49,3.49,0,0,0-1-.83,37.9,37.9,0,0,0-3.55-1.71,17.4,17.4,0,0,1-3.91-2.3,7.17,7.17,0,0,1-1.94-2.56,8.47,8.47,0,0,1-.63-3.41,6.87,6.87,0,0,1,2.69-5.76,11.82,11.82,0,0,1,7.37-2.06,20.66,20.66,0,0,1,8.45,1.92l-2.2,5.57a16,16,0,0,0-6.47-1.72,3.42,3.42,0,0,0-2,.49,1.49,1.49,0,0,0-.64,1.23,1.76,1.76,0,0,0,.81,1.4,30.37,30.37,0,0,0,4.41,2.27,12.07,12.07,0,0,1,4.79,3.33A7.2,7.2,0,0,1,290.57,185.71Z"/><path class="cls-1" d="M317.81,175.61a8.92,8.92,0,0,1-2.64,6.91c-1.76,1.63-4.25,2.44-7.49,2.44h-2v8.86h-7.21v-26.7h9.24q5.06,0,7.59,2.21A7.9,7.9,0,0,1,317.81,175.61Zm-12.16,3.47H307a3.58,3.58,0,0,0,2.58-.91,3.32,3.32,0,0,0,1-2.52q0-2.7-3-2.7h-1.86Z"/><path class="cls-1" d="M341.65,193.82H325.8v-26.7h15.85v5.79H333v4.2h8v5.79h-8v5h8.63Z"/><path class="cls-1" d="M362,172.66a4.59,4.59,0,0,0-4,2.11,10.17,10.17,0,0,0-1.44,5.81q0,7.71,5.86,7.7a11.9,11.9,0,0,0,3.43-.49,32.78,32.78,0,0,0,3.35-1.19v6.1a18.44,18.44,0,0,1-7.56,1.48q-6,0-9.27-3.5t-3.22-10.14a16.15,16.15,0,0,1,1.56-7.28,11.23,11.23,0,0,1,4.49-4.83,13.51,13.51,0,0,1,6.89-1.69,19,19,0,0,1,8.27,1.88l-2.21,5.68a25.82,25.82,0,0,0-2.95-1.17A10.28,10.28,0,0,0,362,172.66Z"/><path class="cls-1" d="M378.07,193.82v-26.7h7.24v26.7Z"/><path class="cls-1" d="M411.2,193.82l-1.31-5h-8.68l-1.35,5h-7.92l8.71-26.8h9.62l8.82,26.8Zm-2.81-10.92-1.15-4.38c-.27-1-.6-2.24-1-3.78s-.63-2.66-.76-3.32c-.11.62-.32,1.64-.64,3.06s-1,4.23-2.15,8.42Z"/><path class="cls-1" d="M425.71,193.82v-26.7h7.21V188H443.2v5.83Z"/><path class="cls-1" d="M451.21,193.82v-26.7h7.25v26.7Z"/><path class="cls-1" d="M485.42,185.71a7.86,7.86,0,0,1-1.26,4.41,8.26,8.26,0,0,1-3.63,3,13.34,13.34,0,0,1-5.57,1.07,22.44,22.44,0,0,1-4.47-.37,16.56,16.56,0,0,1-3.76-1.31v-6.42a21.86,21.86,0,0,0,4.29,1.65,16.2,16.2,0,0,0,4.09.59,3.89,3.89,0,0,0,2.35-.56,1.7,1.7,0,0,0,.75-1.43,1.61,1.61,0,0,0-.3-1,3.49,3.49,0,0,0-1-.83,37.9,37.9,0,0,0-3.55-1.71,17.4,17.4,0,0,1-3.91-2.3,7.17,7.17,0,0,1-1.94-2.56,8.47,8.47,0,0,1-.63-3.41,6.87,6.87,0,0,1,2.69-5.76,11.82,11.82,0,0,1,7.37-2.06,20.66,20.66,0,0,1,8.45,1.92l-2.2,5.57a16,16,0,0,0-6.47-1.72,3.4,3.4,0,0,0-2,.49,1.49,1.49,0,0,0-.64,1.23,1.76,1.76,0,0,0,.81,1.4,30.37,30.37,0,0,0,4.41,2.27,12.07,12.07,0,0,1,4.79,3.33A7.2,7.2,0,0,1,485.42,185.71Z"/><path class="cls-1" d="M505.07,193.82h-7.22V173h-6.51v-5.9h20.22V173h-6.49Z"/><path class="cls-1" d="M126.34,152.78s-12.47,1.32-28.07,1.32c-12.67.1-19-3.34-19-17.32v-22.7c0-11.25,7.39-18.34,20.06-18.34h12.26c12.77,0,19.15,7.09,19.15,18.34V130.5c0,.91-.1,1.21-1,1.21H91.78v3.65c0,8.11,1.22,8.31,8.41,8.31h26.35Zm-8.21-36.27c0-9.83-2.74-10.54-9.22-10.54H102c-6.59,0-10.24.41-10.24,10.54v5.27l26.35-.2Z"/><path class="cls-1" d="M141.27,95.94h12.56v4.46c4.46-2.23,10.74-5.07,16.11-5.07h3.15c12.36,0,18.64,2.94,18.64,16.72v41.64H179.17V114.08c0-6.18-2.44-7.7-8.42-7.7h-2.83c-4.36,0-9.53,2.23-14.09,3.55v43.76H141.27Z"/><path class="cls-1" d="M316.17,153.69H303.6v-4.45c-4.46,2.13-11.25,5.06-16.62,5.06h-3c-12.46,0-18.74-2.93-18.74-16.81V95.94h12.56v39.52c0,6.28,2.44,7.8,8.51,7.8H289c4.46,0,10-2.33,14.59-3.54V95.94h12.57Z"/><rect class="cls-1" x="329.94" y="95.94" width="12.56" height="57.75"/><path class="cls-1" d="M356.28,95.94h12.57v5.47c4.46-2.53,10.74-6,16.11-6h6.69v11.25h-8.72c-4.35,0-9.52,1.62-14.08,3.75v43.26H356.28Z"/><path class="cls-1" d="M447.87,114.59v20.26c0,14-6.38,19.35-19.15,19.35H414.94c-12.67,0-19.05-5.36-19.05-19.35V114.59c0-14,6.38-19.36,19.05-19.36h13.78c12.77,0,19.15,5.37,19.15,19.36M435.31,135V114c0-6.18-2.44-8.21-8.52-8.21h-9.93c-6,0-8.41,2-8.41,8.21v21c0,6.29,2.43,8.31,8.41,8.31h9.93c6.08,0,8.52-2,8.52-8.31"/><path class="cls-1" d="M459.05,95.94h12.57v4.46c4.46-2.23,10.74-5.07,16.11-5.07h3.14c12.36,0,18.65,2.94,18.65,16.72v41.64H497V114.08c0-6.18-2.43-7.7-8.41-7.7H485.7c-4.35,0-9.52,2.23-14.08,3.55v43.76H459.05Z"/><rect class="cls-1" x="329.94" y="73.64" width="12.56" height="12.27"/><path class="cls-1" d="M235.34,95.23H221.56c-12.67,0-19.05,5.37-19.05,19.36v20.26c0,14,6.38,19.35,19.05,19.35h5.28v-5.76l12.35,21.91a27.86,27.86,0,0,0,2.89,0V153.56c8.27-1.79,12.41-7.45,12.41-18.71V114.59c0-14-6.38-19.36-19.15-19.36m-1.92,48h-9.93c-6,0-8.41-2-8.41-8.31V114c0-6.18,2.43-8.21,8.41-8.21h9.93c6.08,0,8.51,2,8.51,8.21v21c0,6.29-2.43,8.31-8.51,8.31"/><path class="cls-1" d="M526.57,95.71A6.72,6.72,0,1,1,519.85,89,6.73,6.73,0,0,1,526.57,95.71Zm-12.35,0a5.64,5.64,0,1,0,5.61-5.61A5.64,5.64,0,0,0,514.22,95.69Zm3.11-3.75h2.59c.89,0,2.63,0,2.63,2a1.73,1.73,0,0,1-1.42,1.85c1,.07,1.1.75,1.25,1.71a7.08,7.08,0,0,0,.39,2h-1.6c0-.36-.29-2.28-.29-2.38-.1-.43-.25-.64-.78-.64h-1.31v3h-1.46Zm1.42,3.31h1.17a1,1,0,0,0,1.14-1.07c0-1-.71-1-1.1-1h-1.21Z"/></svg>