<?xml version="1.0" encoding="utf-8"?>
<!-- Generator: Adobe Illustrator 23.0.1, SVG Export Plug-In . SVG Version: 6.00 Build 0)  -->
<svg version="1.1" id="Layer_1" xmlns="http://www.w3.org/2000/svg" xmlns:xlink="http://www.w3.org/1999/xlink" x="0px" y="0px"
	 viewBox="0 0 343 121" style="enable-background:new 0 0 343 121;" xml:space="preserve">
<style type="text/css">
	.st0{fill:#456FB6;}
	.st1{fill:#EE2D67;}
	.st2{fill:#FDCA0B;}
	.st3{fill:#FFFFFF;}
</style>
<g>
	<path class="st0" d="M22.61,102.25l-1.49-9.22l-0.01-0.11c0-0.09,0.03-0.16,0.08-0.22c0.05-0.06,0.11-0.09,0.19-0.09h1.14
		c0.11,0,0.19,0.02,0.24,0.06c0.05,0.04,0.08,0.12,0.1,0.22l1.05,6.47l1.13-4.17c0.08-0.24,0.22-0.36,0.42-0.36h0.7
		c0.11,0,0.2,0.04,0.27,0.11c0.07,0.07,0.11,0.16,0.14,0.25l1.14,4.17l1.04-6.47c0.03-0.19,0.14-0.29,0.35-0.29h1.14
		c0.07,0,0.13,0.03,0.18,0.09c0.05,0.06,0.08,0.13,0.08,0.22c0,0.05,0,0.09-0.01,0.11l-1.49,9.22c-0.02,0.13-0.07,0.24-0.15,0.32
		c-0.08,0.08-0.18,0.12-0.31,0.12h-0.86c-0.12,0-0.22-0.04-0.29-0.11c-0.08-0.07-0.13-0.16-0.15-0.25l-1.42-4.77l-1.42,4.77
		c-0.07,0.24-0.21,0.36-0.44,0.36h-0.86C22.82,102.68,22.67,102.53,22.61,102.25z"/>
	<path class="st0" d="M32.58,102.58c-0.06-0.07-0.09-0.15-0.09-0.24v-9.36c0-0.11,0.03-0.19,0.08-0.26c0.06-0.07,0.13-0.1,0.22-0.1
		h1.16c0.09,0,0.17,0.03,0.23,0.1c0.06,0.07,0.09,0.15,0.09,0.26v3.7h3.7v-3.7c0-0.11,0.03-0.19,0.09-0.26
		c0.06-0.07,0.13-0.1,0.21-0.1h1.18c0.09,0,0.17,0.03,0.22,0.1c0.06,0.07,0.08,0.15,0.08,0.26v9.36c0,0.1-0.03,0.18-0.08,0.24
		c-0.05,0.07-0.13,0.1-0.22,0.1h-1.18c-0.08,0-0.16-0.03-0.21-0.1c-0.06-0.07-0.09-0.15-0.09-0.24v-3.84h-3.7v3.84
		c0,0.1-0.03,0.18-0.09,0.24c-0.06,0.07-0.14,0.1-0.23,0.1H32.8C32.71,102.68,32.64,102.64,32.58,102.58z"/>
	<path class="st0" d="M42.37,102.58c-0.06-0.07-0.09-0.15-0.09-0.24v-9.36c0-0.11,0.03-0.19,0.08-0.26c0.06-0.07,0.13-0.1,0.22-0.1
		h5.58c0.09,0,0.17,0.03,0.23,0.1c0.06,0.07,0.09,0.15,0.09,0.26v0.96c0,0.11-0.03,0.19-0.09,0.25c-0.06,0.06-0.13,0.09-0.23,0.09
		h-4.15v2.52h3.87c0.09,0,0.17,0.03,0.23,0.1c0.06,0.07,0.09,0.15,0.09,0.26v0.91c0,0.11-0.03,0.19-0.09,0.25
		c-0.06,0.06-0.14,0.09-0.23,0.09h-3.87v2.6h4.25c0.09,0,0.17,0.03,0.23,0.09c0.06,0.06,0.09,0.15,0.09,0.25v0.98
		c0,0.11-0.03,0.19-0.09,0.25c-0.06,0.06-0.13,0.09-0.23,0.09h-5.68C42.51,102.68,42.43,102.64,42.37,102.58z"/>
	<path class="st0" d="M50.81,102.58c-0.06-0.07-0.09-0.15-0.09-0.24v-9.36c0-0.11,0.03-0.19,0.08-0.26c0.06-0.07,0.13-0.1,0.22-0.1
		h0.99c0.16,0,0.28,0.08,0.37,0.24L56,99.24v-6.27c0-0.11,0.03-0.19,0.08-0.26c0.05-0.07,0.13-0.1,0.22-0.1h1.09
		c0.09,0,0.17,0.03,0.23,0.1c0.06,0.07,0.09,0.15,0.09,0.26v9.35c0,0.11-0.03,0.19-0.09,0.26c-0.06,0.07-0.13,0.1-0.22,0.1h-1
		c-0.17,0-0.29-0.08-0.38-0.24l-3.61-6.24v6.14c0,0.1-0.03,0.18-0.08,0.24c-0.06,0.07-0.13,0.1-0.22,0.1h-1.09
		C50.95,102.68,50.87,102.64,50.81,102.58z"/>
	<path class="st0" d="M64.52,102.25l-1.49-9.22l-0.01-0.11c0-0.09,0.03-0.16,0.08-0.22c0.05-0.06,0.11-0.09,0.19-0.09h1.14
		c0.11,0,0.19,0.02,0.24,0.06c0.05,0.04,0.08,0.12,0.1,0.22l1.05,6.47l1.13-4.17c0.08-0.24,0.22-0.36,0.42-0.36h0.7
		c0.11,0,0.2,0.04,0.27,0.11c0.07,0.07,0.11,0.16,0.14,0.25l1.14,4.17l1.04-6.47c0.03-0.19,0.14-0.29,0.35-0.29h1.14
		c0.07,0,0.13,0.03,0.18,0.09c0.05,0.06,0.08,0.13,0.08,0.22c0,0.05,0,0.09-0.01,0.11l-1.49,9.22c-0.02,0.13-0.07,0.24-0.15,0.32
		c-0.08,0.08-0.18,0.12-0.31,0.12h-0.86c-0.12,0-0.22-0.04-0.29-0.11c-0.08-0.07-0.13-0.16-0.15-0.25l-1.42-4.77l-1.42,4.77
		c-0.07,0.24-0.21,0.36-0.44,0.36h-0.86C64.73,102.68,64.58,102.53,64.52,102.25z"/>
	<path class="st0" d="M74.49,102.58c-0.06-0.07-0.09-0.15-0.09-0.24v-9.36c0-0.11,0.03-0.19,0.08-0.26c0.06-0.07,0.13-0.1,0.22-0.1
		h5.58c0.09,0,0.17,0.03,0.23,0.1c0.06,0.07,0.09,0.15,0.09,0.26v0.96c0,0.11-0.03,0.19-0.09,0.25c-0.06,0.06-0.13,0.09-0.23,0.09
		h-4.15v2.52h3.87c0.09,0,0.17,0.03,0.23,0.1s0.09,0.15,0.09,0.26v0.91c0,0.11-0.03,0.19-0.09,0.25c-0.06,0.06-0.14,0.09-0.23,0.09
		h-3.87v2.6h4.25c0.09,0,0.17,0.03,0.23,0.09c0.06,0.06,0.09,0.15,0.09,0.25v0.98c0,0.11-0.03,0.19-0.09,0.25
		c-0.06,0.06-0.13,0.09-0.23,0.09h-5.68C74.62,102.68,74.55,102.64,74.49,102.58z"/>
	<path class="st0" d="M87.13,102.25l-1.49-9.22l-0.01-0.11c0-0.09,0.03-0.16,0.08-0.22c0.05-0.06,0.11-0.09,0.19-0.09h1.14
		c0.11,0,0.19,0.02,0.24,0.06c0.05,0.04,0.08,0.12,0.1,0.22l1.05,6.47l1.13-4.17c0.08-0.24,0.22-0.36,0.42-0.36h0.7
		c0.11,0,0.2,0.04,0.27,0.11c0.07,0.07,0.11,0.16,0.14,0.25l1.14,4.17l1.04-6.47c0.03-0.19,0.14-0.29,0.35-0.29h1.14
		c0.07,0,0.13,0.03,0.18,0.09c0.05,0.06,0.08,0.13,0.08,0.22c0,0.05,0,0.09-0.01,0.11l-1.49,9.22c-0.02,0.13-0.07,0.24-0.15,0.32
		c-0.08,0.08-0.18,0.12-0.31,0.12h-0.86c-0.12,0-0.22-0.04-0.29-0.11c-0.08-0.07-0.13-0.16-0.15-0.25l-1.42-4.77l-1.42,4.77
		c-0.07,0.24-0.21,0.36-0.44,0.36h-0.86C87.34,102.68,87.19,102.53,87.13,102.25z"/>
	<path class="st0" d="M97.63,101.83c-0.64-0.66-0.98-1.64-1.01-2.95c-0.01-0.28-0.01-0.69-0.01-1.22c0-0.55,0-0.96,0.01-1.24
		c0.03-1.27,0.38-2.25,1.04-2.93c0.66-0.68,1.55-1.02,2.67-1.02c1.11,0,2,0.34,2.66,1.02c0.66,0.68,1.01,1.66,1.04,2.93
		c0.02,0.56,0.03,0.97,0.03,1.24c0,0.26-0.01,0.67-0.03,1.22c-0.03,1.3-0.37,2.29-1.02,2.95c-0.64,0.66-1.54,0.99-2.69,0.99
		C99.17,102.82,98.27,102.49,97.63,101.83z M101.67,100.58c0.33-0.38,0.51-0.97,0.53-1.77c0.02-0.57,0.03-0.96,0.03-1.16
		c0-0.22-0.01-0.61-0.03-1.16c-0.03-0.79-0.21-1.37-0.54-1.76c-0.34-0.39-0.78-0.58-1.33-0.58c-0.56,0-1,0.19-1.34,0.58
		c-0.34,0.39-0.51,0.97-0.53,1.76c-0.01,0.28-0.01,0.67-0.01,1.16c0,0.49,0,0.88,0.01,1.16c0.02,0.79,0.19,1.37,0.53,1.76
		c0.33,0.39,0.78,0.58,1.35,0.58C100.89,101.15,101.34,100.96,101.67,100.58z"/>
	<path class="st0" d="M106.35,102.58c-0.06-0.07-0.09-0.15-0.09-0.24v-9.36c0-0.11,0.03-0.19,0.08-0.26c0.06-0.07,0.13-0.1,0.22-0.1
		h3.28c1.04,0,1.85,0.27,2.44,0.82c0.59,0.55,0.88,1.32,0.88,2.33c0,0.7-0.15,1.29-0.44,1.76c-0.29,0.47-0.71,0.82-1.24,1.03
		l1.83,3.67c0.03,0.06,0.04,0.11,0.04,0.16c0,0.09-0.03,0.16-0.08,0.22c-0.06,0.06-0.12,0.09-0.18,0.09h-1.16
		c-0.13,0-0.24-0.04-0.32-0.11c-0.08-0.07-0.14-0.17-0.2-0.28l-1.62-3.41h-1.73v3.45c0,0.1-0.03,0.18-0.09,0.24
		c-0.06,0.07-0.14,0.1-0.23,0.1h-1.16C106.48,102.68,106.41,102.64,106.35,102.58z M109.81,97.24c0.51,0,0.89-0.13,1.14-0.38
		s0.38-0.63,0.38-1.11c0-0.49-0.13-0.87-0.38-1.13c-0.25-0.26-0.63-0.4-1.14-0.4h-1.76v3.02H109.81z"/>
	<path class="st0" d="M115.44,102.58c-0.06-0.07-0.09-0.15-0.09-0.24v-9.36c0-0.11,0.03-0.19,0.08-0.26c0.06-0.07,0.13-0.1,0.22-0.1
		h1.14c0.09,0,0.17,0.03,0.23,0.1c0.06,0.07,0.09,0.15,0.09,0.26v3.37l2.82-3.47c0.13-0.17,0.29-0.26,0.49-0.26h1.29
		c0.07,0,0.13,0.03,0.18,0.09c0.05,0.06,0.08,0.13,0.08,0.22c0,0.07-0.02,0.12-0.06,0.17l-3.44,4.34l3.7,4.76
		c0.03,0.07,0.05,0.13,0.05,0.19c0,0.09-0.03,0.16-0.08,0.22c-0.05,0.06-0.11,0.09-0.18,0.09h-1.33c-0.18,0-0.3-0.04-0.38-0.12
		s-0.12-0.13-0.13-0.14l-3.02-3.8v3.71c0,0.1-0.03,0.18-0.09,0.24c-0.06,0.07-0.13,0.1-0.23,0.1h-1.14
		C115.57,102.68,115.5,102.64,115.44,102.58z"/>
	<path class="st0" d="M129,102.58c-0.06-0.07-0.09-0.15-0.09-0.24v-7.92h-2.34c-0.08,0-0.16-0.03-0.22-0.1
		c-0.06-0.07-0.09-0.15-0.09-0.26v-1.08c0-0.11,0.03-0.19,0.08-0.26c0.06-0.07,0.13-0.1,0.22-0.1h6.47c0.09,0,0.17,0.03,0.23,0.1
		c0.06,0.07,0.09,0.15,0.09,0.26v1.08c0,0.11-0.03,0.19-0.09,0.26c-0.06,0.07-0.14,0.1-0.23,0.1h-2.33v7.92
		c0,0.1-0.03,0.18-0.08,0.24c-0.06,0.07-0.13,0.1-0.22,0.1h-1.19C129.13,102.68,129.06,102.64,129,102.58z"/>
	<path class="st0" d="M135.75,101.83c-0.64-0.66-0.98-1.64-1.01-2.95c-0.01-0.28-0.01-0.69-0.01-1.22c0-0.55,0-0.96,0.01-1.24
		c0.03-1.27,0.38-2.25,1.04-2.93c0.66-0.68,1.55-1.02,2.67-1.02c1.11,0,2,0.34,2.66,1.02c0.66,0.68,1.01,1.66,1.04,2.93
		c0.02,0.56,0.03,0.97,0.03,1.24c0,0.26-0.01,0.67-0.03,1.22c-0.03,1.3-0.37,2.29-1.02,2.95c-0.64,0.66-1.54,0.99-2.69,0.99
		C137.29,102.82,136.39,102.49,135.75,101.83z M139.78,100.58c0.33-0.38,0.51-0.97,0.53-1.77c0.02-0.57,0.03-0.96,0.03-1.16
		c0-0.22-0.01-0.61-0.03-1.16c-0.03-0.79-0.21-1.37-0.54-1.76c-0.34-0.39-0.78-0.58-1.33-0.58c-0.56,0-1,0.19-1.34,0.58
		c-0.34,0.39-0.51,0.97-0.53,1.76c-0.01,0.28-0.01,0.67-0.01,1.16c0,0.49,0,0.88,0.01,1.16c0.02,0.79,0.19,1.37,0.53,1.76
		c0.33,0.39,0.78,0.58,1.35,0.58C139.01,101.15,139.46,100.96,139.78,100.58z"/>
	<path class="st0" d="M145.12,101.8c-0.64-0.68-0.99-1.63-1.03-2.85c-0.01-0.28-0.01-0.72-0.01-1.34c0-0.61,0-1.06,0.01-1.34
		c0.03-1.19,0.38-2.12,1.04-2.8c0.66-0.68,1.56-1.01,2.71-1.01c0.78,0,1.44,0.15,2.01,0.45c0.56,0.3,0.99,0.68,1.27,1.12
		c0.29,0.45,0.44,0.88,0.46,1.32c0,0.09-0.03,0.16-0.08,0.22c-0.05,0.06-0.12,0.09-0.2,0.09h-1.33c-0.09,0-0.15-0.02-0.19-0.06
		c-0.04-0.04-0.08-0.1-0.11-0.19c-0.12-0.35-0.32-0.66-0.62-0.91c-0.3-0.25-0.7-0.37-1.2-0.37c-0.59,0-1.05,0.18-1.39,0.54
		c-0.33,0.36-0.51,0.92-0.53,1.68c-0.01,0.28-0.01,0.7-0.01,1.26c0,0.56,0,0.98,0.01,1.27c0.02,0.78,0.19,1.35,0.53,1.72
		c0.34,0.37,0.8,0.55,1.39,0.55c0.6,0,1.08-0.18,1.44-0.55c0.36-0.36,0.54-0.91,0.54-1.64v-0.45h-1.54c-0.08,0-0.16-0.03-0.21-0.1
		c-0.06-0.07-0.09-0.15-0.09-0.24v-0.79c0-0.1,0.03-0.18,0.09-0.24c0.06-0.07,0.13-0.1,0.21-0.1h3.04c0.09,0,0.17,0.03,0.23,0.1
		c0.06,0.07,0.09,0.15,0.09,0.24v1.52c0,0.8-0.16,1.49-0.47,2.08c-0.31,0.59-0.76,1.04-1.33,1.36c-0.57,0.32-1.24,0.47-2.01,0.47
		C146.67,102.82,145.76,102.48,145.12,101.8z"/>
	<path class="st0" d="M153.89,102.58c-0.06-0.07-0.09-0.15-0.09-0.24v-9.36c0-0.11,0.03-0.19,0.08-0.26c0.06-0.07,0.13-0.1,0.22-0.1
		h5.58c0.09,0,0.17,0.03,0.23,0.1c0.06,0.07,0.09,0.15,0.09,0.26v0.96c0,0.11-0.03,0.19-0.09,0.25c-0.06,0.06-0.13,0.09-0.23,0.09
		h-4.15v2.52h3.87c0.09,0,0.17,0.03,0.23,0.1s0.09,0.15,0.09,0.26v0.91c0,0.11-0.03,0.19-0.09,0.25c-0.06,0.06-0.14,0.09-0.23,0.09
		h-3.87v2.6h4.25c0.09,0,0.17,0.03,0.23,0.09c0.06,0.06,0.09,0.15,0.09,0.25v0.98c0,0.11-0.03,0.19-0.09,0.25
		c-0.06,0.06-0.13,0.09-0.23,0.09h-5.68C154.02,102.68,153.95,102.64,153.89,102.58z"/>
	<path class="st0" d="M164.28,102.58c-0.06-0.07-0.09-0.15-0.09-0.24v-7.92h-2.34c-0.08,0-0.16-0.03-0.22-0.1
		c-0.06-0.07-0.09-0.15-0.09-0.26v-1.08c0-0.11,0.03-0.19,0.08-0.26c0.06-0.07,0.13-0.1,0.22-0.1h6.47c0.09,0,0.17,0.03,0.23,0.1
		c0.06,0.07,0.09,0.15,0.09,0.26v1.08c0,0.11-0.03,0.19-0.09,0.26c-0.06,0.07-0.14,0.1-0.23,0.1h-2.33v7.92
		c0,0.1-0.03,0.18-0.08,0.24c-0.06,0.07-0.13,0.1-0.22,0.1h-1.19C164.41,102.68,164.34,102.64,164.28,102.58z"/>
	<path class="st0" d="M170.56,102.58c-0.06-0.07-0.09-0.15-0.09-0.24v-9.36c0-0.11,0.03-0.19,0.08-0.26c0.06-0.07,0.13-0.1,0.22-0.1
		h1.16c0.09,0,0.17,0.03,0.23,0.1c0.06,0.07,0.09,0.15,0.09,0.26v3.7h3.7v-3.7c0-0.11,0.03-0.19,0.09-0.26
		c0.06-0.07,0.13-0.1,0.21-0.1h1.18c0.09,0,0.17,0.03,0.22,0.1c0.06,0.07,0.08,0.15,0.08,0.26v9.36c0,0.1-0.03,0.18-0.08,0.24
		c-0.05,0.07-0.13,0.1-0.22,0.1h-1.18c-0.08,0-0.16-0.03-0.21-0.1c-0.06-0.07-0.09-0.15-0.09-0.24v-3.84h-3.7v3.84
		c0,0.1-0.03,0.18-0.09,0.24c-0.06,0.07-0.14,0.1-0.23,0.1h-1.16C170.69,102.68,170.62,102.64,170.56,102.58z"/>
	<path class="st0" d="M180.35,102.58c-0.06-0.07-0.09-0.15-0.09-0.24v-9.36c0-0.11,0.03-0.19,0.08-0.26c0.06-0.07,0.13-0.1,0.22-0.1
		h5.58c0.09,0,0.17,0.03,0.23,0.1c0.06,0.07,0.09,0.15,0.09,0.26v0.96c0,0.11-0.03,0.19-0.09,0.25c-0.06,0.06-0.13,0.09-0.23,0.09
		H182v2.52h3.87c0.09,0,0.17,0.03,0.23,0.1s0.09,0.15,0.09,0.26v0.91c0,0.11-0.03,0.19-0.09,0.25c-0.06,0.06-0.14,0.09-0.23,0.09
		H182v2.6h4.25c0.09,0,0.17,0.03,0.23,0.09c0.06,0.06,0.09,0.15,0.09,0.25v0.98c0,0.11-0.03,0.19-0.09,0.25
		c-0.06,0.06-0.13,0.09-0.23,0.09h-5.68C180.48,102.68,180.41,102.64,180.35,102.58z"/>
	<path class="st0" d="M188.79,102.58c-0.06-0.07-0.09-0.15-0.09-0.24v-9.36c0-0.11,0.03-0.19,0.08-0.26c0.06-0.07,0.13-0.1,0.22-0.1
		h3.28c1.04,0,1.85,0.27,2.44,0.82c0.59,0.55,0.88,1.32,0.88,2.33c0,0.7-0.15,1.29-0.44,1.76c-0.29,0.47-0.71,0.82-1.24,1.03
		l1.83,3.67c0.03,0.06,0.04,0.11,0.04,0.16c0,0.09-0.03,0.16-0.08,0.22c-0.06,0.06-0.12,0.09-0.18,0.09h-1.16
		c-0.13,0-0.24-0.04-0.32-0.11c-0.08-0.07-0.14-0.17-0.2-0.28l-1.62-3.41h-1.73v3.45c0,0.1-0.03,0.18-0.09,0.24
		c-0.06,0.07-0.14,0.1-0.23,0.1h-1.16C188.92,102.68,188.85,102.64,188.79,102.58z M192.25,97.24c0.51,0,0.89-0.13,1.14-0.38
		c0.25-0.25,0.38-0.63,0.38-1.11c0-0.49-0.13-0.87-0.38-1.13c-0.25-0.26-0.63-0.4-1.14-0.4h-1.76v3.02H192.25z"/>
	<path class="st0" d="M197.38,103.67c-0.04-0.06-0.06-0.13-0.05-0.22l0.33-2.46c0.05-0.31,0.19-0.46,0.42-0.46h1.18
		c0.06,0,0.11,0.03,0.16,0.08c0.05,0.05,0.07,0.11,0.07,0.18c0,0.05-0.01,0.11-0.04,0.2l-0.82,2.39c-0.09,0.25-0.22,0.37-0.42,0.37
		h-0.66C197.48,103.76,197.43,103.73,197.38,103.67z"/>
	<path class="st0" d="M205.86,101.81c-0.64-0.68-0.98-1.64-1.02-2.88c-0.01-0.26-0.01-0.68-0.01-1.27c0-0.59,0-1.03,0.01-1.29
		c0.04-1.23,0.38-2.18,1.03-2.87c0.64-0.69,1.54-1.03,2.7-1.03c0.75,0,1.41,0.15,1.96,0.44c0.56,0.29,0.99,0.69,1.3,1.2
		c0.31,0.51,0.47,1.08,0.49,1.71v0.03c0,0.08-0.03,0.14-0.08,0.19c-0.05,0.05-0.12,0.08-0.18,0.08h-1.23c-0.1,0-0.18-0.03-0.23-0.08
		c-0.05-0.05-0.09-0.15-0.13-0.28c-0.13-0.59-0.35-1.01-0.66-1.26c-0.31-0.24-0.73-0.37-1.24-0.37c-1.21,0-1.83,0.77-1.88,2.3
		c-0.01,0.26-0.01,0.66-0.01,1.19c0,0.54,0,0.94,0.01,1.22c0.05,1.53,0.68,2.3,1.88,2.3c0.51,0,0.92-0.12,1.23-0.37
		c0.32-0.24,0.54-0.66,0.67-1.26c0.03-0.13,0.08-0.23,0.13-0.28c0.05-0.05,0.13-0.08,0.23-0.08h1.23c0.08,0,0.14,0.03,0.2,0.09
		c0.06,0.06,0.08,0.13,0.07,0.22c-0.02,0.63-0.18,1.2-0.49,1.71c-0.31,0.51-0.74,0.91-1.3,1.2c-0.56,0.29-1.21,0.44-1.96,0.44
		C207.39,102.82,206.49,102.48,205.86,101.81z"/>
	<path class="st0" d="M214.45,102.58c-0.06-0.07-0.09-0.15-0.09-0.24v-9.36c0-0.11,0.03-0.19,0.08-0.26c0.06-0.07,0.13-0.1,0.22-0.1
		h1.16c0.09,0,0.17,0.03,0.23,0.1c0.06,0.07,0.09,0.15,0.09,0.26v3.7h3.7v-3.7c0-0.11,0.03-0.19,0.09-0.26
		c0.06-0.07,0.13-0.1,0.21-0.1h1.18c0.09,0,0.17,0.03,0.22,0.1c0.06,0.07,0.08,0.15,0.08,0.26v9.36c0,0.1-0.03,0.18-0.08,0.24
		c-0.05,0.07-0.13,0.1-0.22,0.1h-1.18c-0.08,0-0.16-0.03-0.21-0.1c-0.06-0.07-0.09-0.15-0.09-0.24v-3.84h-3.7v3.84
		c0,0.1-0.03,0.18-0.09,0.24c-0.06,0.07-0.14,0.1-0.23,0.1h-1.16C214.58,102.68,214.51,102.64,214.45,102.58z"/>
	<path class="st0" d="M224.25,102.58c-0.06-0.07-0.09-0.15-0.09-0.24v-9.38c0-0.11,0.03-0.19,0.09-0.25
		c0.06-0.06,0.13-0.09,0.22-0.09h1.21c0.09,0,0.17,0.03,0.22,0.09c0.05,0.06,0.08,0.15,0.08,0.25v9.38c0,0.1-0.03,0.18-0.08,0.24
		c-0.06,0.07-0.13,0.1-0.22,0.1h-1.21C224.38,102.68,224.31,102.64,224.25,102.58z"/>
	<path class="st0" d="M228.6,102.58c-0.06-0.07-0.09-0.15-0.09-0.24v-9.38c0-0.11,0.03-0.19,0.09-0.25
		c0.06-0.06,0.13-0.09,0.22-0.09h1.19c0.09,0,0.17,0.03,0.22,0.09c0.06,0.06,0.08,0.15,0.08,0.25v7.99h4.01
		c0.09,0,0.17,0.03,0.23,0.1c0.06,0.07,0.09,0.15,0.09,0.24v1.04c0,0.1-0.03,0.18-0.09,0.24c-0.06,0.07-0.14,0.1-0.23,0.1h-5.5
		C228.73,102.68,228.66,102.64,228.6,102.58z"/>
	<path class="st0" d="M236.51,102.58c-0.06-0.07-0.09-0.15-0.09-0.24v-9.36c0-0.11,0.03-0.19,0.08-0.26c0.06-0.07,0.13-0.1,0.22-0.1
		h3.09c2.49,0,3.76,1.3,3.81,3.91c0.02,0.56,0.03,0.93,0.03,1.12c0,0.18-0.01,0.55-0.03,1.11c-0.03,1.34-0.35,2.33-0.95,2.97
		c-0.6,0.64-1.53,0.96-2.79,0.96h-3.15C236.64,102.68,236.57,102.64,236.51,102.58z M239.81,101.01c0.7,0,1.21-0.18,1.52-0.53
		c0.31-0.35,0.48-0.94,0.49-1.77c0.02-0.57,0.03-0.93,0.03-1.08c0-0.15-0.01-0.51-0.03-1.06c-0.02-0.79-0.19-1.36-0.52-1.73
		c-0.33-0.37-0.85-0.55-1.56-0.55h-1.54v6.73H239.81z"/>
	<path class="st0" d="M245.96,102.58c-0.06-0.07-0.09-0.15-0.09-0.24v-9.36c0-0.11,0.03-0.19,0.08-0.26c0.06-0.07,0.13-0.1,0.22-0.1
		h3.28c1.04,0,1.85,0.27,2.44,0.82c0.59,0.55,0.88,1.32,0.88,2.33c0,0.7-0.15,1.29-0.44,1.76c-0.29,0.47-0.71,0.82-1.24,1.03
		l1.83,3.67c0.03,0.06,0.04,0.11,0.04,0.16c0,0.09-0.03,0.16-0.08,0.22c-0.06,0.06-0.12,0.09-0.18,0.09h-1.16
		c-0.13,0-0.24-0.04-0.32-0.11c-0.08-0.07-0.14-0.17-0.2-0.28l-1.62-3.41h-1.73v3.45c0,0.1-0.03,0.18-0.09,0.24
		c-0.06,0.07-0.14,0.1-0.23,0.1h-1.16C246.09,102.68,246.02,102.64,245.96,102.58z M249.42,97.24c0.51,0,0.89-0.13,1.14-0.38
		c0.25-0.25,0.38-0.63,0.38-1.11c0-0.49-0.13-0.87-0.38-1.13c-0.25-0.26-0.63-0.4-1.14-0.4h-1.76v3.02H249.42z"/>
	<path class="st0" d="M255.05,102.58c-0.06-0.07-0.09-0.15-0.09-0.24v-9.36c0-0.11,0.03-0.19,0.08-0.26c0.06-0.07,0.13-0.1,0.22-0.1
		h5.58c0.09,0,0.17,0.03,0.23,0.1c0.06,0.07,0.09,0.15,0.09,0.26v0.96c0,0.11-0.03,0.19-0.09,0.25c-0.06,0.06-0.13,0.09-0.23,0.09
		h-4.15v2.52h3.87c0.09,0,0.17,0.03,0.23,0.1c0.06,0.07,0.09,0.15,0.09,0.26v0.91c0,0.11-0.03,0.19-0.09,0.25
		c-0.06,0.06-0.14,0.09-0.23,0.09h-3.87v2.6h4.25c0.09,0,0.17,0.03,0.23,0.09c0.06,0.06,0.09,0.15,0.09,0.25v0.98
		c0,0.11-0.03,0.19-0.09,0.25c-0.06,0.06-0.13,0.09-0.23,0.09h-5.68C255.18,102.68,255.11,102.64,255.05,102.58z"/>
	<path class="st0" d="M263.49,102.58c-0.06-0.07-0.09-0.15-0.09-0.24v-9.36c0-0.11,0.03-0.19,0.08-0.26c0.06-0.07,0.13-0.1,0.22-0.1
		h0.99c0.16,0,0.28,0.08,0.37,0.24l3.62,6.38v-6.27c0-0.11,0.03-0.19,0.08-0.26c0.05-0.07,0.13-0.1,0.22-0.1h1.09
		c0.09,0,0.17,0.03,0.23,0.1c0.06,0.07,0.09,0.15,0.09,0.26v9.35c0,0.11-0.03,0.19-0.09,0.26c-0.06,0.07-0.13,0.1-0.22,0.1h-1
		c-0.17,0-0.29-0.08-0.38-0.24l-3.61-6.24v6.14c0,0.1-0.03,0.18-0.08,0.24c-0.06,0.07-0.13,0.1-0.22,0.1h-1.09
		C263.62,102.68,263.55,102.64,263.49,102.58z"/>
	<path class="st0" d="M277.48,102.43c-0.54-0.26-0.95-0.6-1.23-1.02c-0.28-0.42-0.43-0.88-0.44-1.38c0-0.08,0.03-0.15,0.08-0.21
		c0.05-0.06,0.11-0.09,0.19-0.09h1.15c0.09,0,0.17,0.02,0.23,0.07c0.06,0.05,0.11,0.11,0.16,0.2c0.08,0.33,0.28,0.6,0.58,0.82
		c0.3,0.22,0.71,0.33,1.23,0.33c0.59,0,1.04-0.11,1.34-0.34c0.3-0.22,0.45-0.53,0.45-0.93c0-0.26-0.08-0.48-0.23-0.65
		s-0.38-0.32-0.69-0.45c-0.31-0.13-0.77-0.28-1.37-0.47c-1-0.27-1.73-0.62-2.19-1.06c-0.46-0.44-0.7-1.07-0.7-1.9
		c0-0.56,0.14-1.05,0.41-1.49c0.27-0.44,0.66-0.78,1.16-1.03c0.5-0.25,1.09-0.37,1.75-0.37c0.7,0,1.3,0.14,1.82,0.42
		c0.51,0.28,0.9,0.63,1.16,1.04c0.26,0.42,0.41,0.83,0.42,1.24c0,0.08-0.03,0.15-0.08,0.21c-0.05,0.06-0.11,0.09-0.19,0.09h-1.2
		c-0.19,0-0.31-0.09-0.38-0.26c-0.04-0.31-0.21-0.56-0.49-0.77c-0.29-0.21-0.64-0.31-1.06-0.31c-0.46,0-0.83,0.1-1.1,0.3
		c-0.27,0.2-0.4,0.49-0.4,0.88c0,0.26,0.07,0.47,0.2,0.65c0.13,0.17,0.35,0.32,0.63,0.45c0.29,0.13,0.7,0.28,1.25,0.44
		c0.75,0.19,1.35,0.41,1.79,0.65c0.44,0.24,0.77,0.54,0.98,0.91c0.21,0.36,0.32,0.83,0.32,1.4c0,0.62-0.15,1.16-0.45,1.62
		c-0.3,0.46-0.72,0.8-1.27,1.04c-0.54,0.24-1.17,0.36-1.89,0.36C278.67,102.82,278.02,102.69,277.48,102.43z"/>
	<path class="st0" d="M285.13,102.58c-0.06-0.07-0.09-0.15-0.09-0.24v-9.36c0-0.11,0.03-0.19,0.08-0.26c0.06-0.07,0.13-0.1,0.22-0.1
		h1.16c0.09,0,0.17,0.03,0.23,0.1c0.06,0.07,0.09,0.15,0.09,0.26v3.7h3.7v-3.7c0-0.11,0.03-0.19,0.09-0.26
		c0.06-0.07,0.13-0.1,0.21-0.1H292c0.09,0,0.17,0.03,0.22,0.1c0.06,0.07,0.08,0.15,0.08,0.26v9.36c0,0.1-0.03,0.18-0.08,0.24
		c-0.05,0.07-0.13,0.1-0.22,0.1h-1.18c-0.08,0-0.16-0.03-0.21-0.1c-0.06-0.07-0.09-0.15-0.09-0.24v-3.84h-3.7v3.84
		c0,0.1-0.03,0.18-0.09,0.24c-0.06,0.07-0.14,0.1-0.23,0.1h-1.16C285.26,102.68,285.18,102.64,285.13,102.58z"/>
	<path class="st0" d="M294.92,102.58c-0.06-0.07-0.09-0.15-0.09-0.24v-9.38c0-0.11,0.03-0.19,0.09-0.25
		c0.06-0.06,0.13-0.09,0.22-0.09h1.21c0.09,0,0.17,0.03,0.22,0.09c0.05,0.06,0.08,0.15,0.08,0.25v9.38c0,0.1-0.03,0.18-0.08,0.24
		c-0.06,0.07-0.13,0.1-0.22,0.1h-1.21C295.05,102.68,294.98,102.64,294.92,102.58z"/>
	<path class="st0" d="M299.27,102.58c-0.06-0.07-0.09-0.15-0.09-0.24v-9.36c0-0.11,0.03-0.19,0.08-0.26c0.06-0.07,0.13-0.1,0.22-0.1
		h0.99c0.16,0,0.28,0.08,0.37,0.24l3.62,6.38v-6.27c0-0.11,0.03-0.19,0.08-0.26c0.05-0.07,0.13-0.1,0.22-0.1h1.09
		c0.09,0,0.17,0.03,0.23,0.1c0.06,0.07,0.09,0.15,0.09,0.26v9.35c0,0.11-0.03,0.19-0.09,0.26c-0.06,0.07-0.13,0.1-0.22,0.1h-1
		c-0.17,0-0.29-0.08-0.38-0.24l-3.61-6.24v6.14c0,0.1-0.03,0.18-0.08,0.24c-0.06,0.07-0.13,0.1-0.22,0.1h-1.09
		C299.4,102.68,299.33,102.64,299.27,102.58z"/>
	<path class="st0" d="M308.78,102.58c-0.06-0.07-0.09-0.15-0.09-0.24v-9.36c0-0.11,0.03-0.19,0.08-0.26c0.06-0.07,0.13-0.1,0.22-0.1
		h5.58c0.09,0,0.17,0.03,0.23,0.1c0.06,0.07,0.09,0.15,0.09,0.26v0.96c0,0.11-0.03,0.19-0.09,0.25c-0.06,0.06-0.13,0.09-0.23,0.09
		h-4.15v2.52h3.87c0.09,0,0.17,0.03,0.23,0.1s0.09,0.15,0.09,0.26v0.91c0,0.11-0.03,0.19-0.09,0.25c-0.06,0.06-0.14,0.09-0.23,0.09
		h-3.87v2.6h4.25c0.09,0,0.17,0.03,0.23,0.09c0.06,0.06,0.09,0.15,0.09,0.25v0.98c0,0.11-0.03,0.19-0.09,0.25
		c-0.06,0.06-0.13,0.09-0.23,0.09h-5.68C308.91,102.68,308.83,102.64,308.78,102.58z"/>
</g>
<path class="st1" d="M229.08,77.27H144.7c-0.62,0-1.13-0.51-1.13-1.13V48.78c0-0.62,0.51-1.13,1.13-1.13h84.38
	c0.62,0,1.13,0.51,1.13,1.13v27.36C230.21,76.77,229.71,77.27,229.08,77.27z"/>
<path class="st2" d="M312.83,114.94c0.04-0.02,0.08-0.03,0.11-0.05C312.96,114.95,312.91,114.95,312.83,114.94z"/>
<g>
	<path class="st0" d="M36.81,74.3c-0.35,0-0.66-0.31-0.66-0.66V51.06c0-0.35,0.31-0.66,0.66-0.66h4.06c3.52,0,6.92,2.24,6.92,6.34
		v0.66c0,1.66-0.97,3.44-2.78,4.52c1.43,0.5,3.32,2.44,3.32,5.37v0.27c0,4.18-3.36,6.73-6.88,6.73H36.81z M40.18,60.5h0.66
		c1.35,0,2.94-0.9,2.94-3.26v-0.27c0-2.36-1.59-2.77-2.94-2.77h-0.66V60.5z M44.31,67.41c0-2.28-1.55-3.43-2.9-3.43h-1.24v6.51h1.24
		C42.77,70.5,44.31,69.7,44.31,67.41z"/>
	<path class="st0" d="M51.08,68.07V51.06c0-0.35,0.31-0.66,0.66-0.66h2.71c0.35,0,0.66,0.31,0.66,0.66v17.13
		c0,1.86,0.73,2.54,2.17,2.54c1.43,0,2.22-0.83,2.17-2.54V51.06c0-0.35,0.31-0.66,0.66-0.66h2.71c0.35,0,0.66,0.31,0.66,0.66v17.01
		c0,3.71-2.13,6.46-6.19,6.46S51.08,71.78,51.08,68.07z"/>
	<path class="st0" d="M71.19,73.64c0,0.35-0.31,0.66-0.66,0.66h-2.71c-0.35,0-0.66-0.31-0.66-0.66V51.06c0-0.35,0.31-0.66,0.66-0.66
		h2.71c0.35,0,0.66,0.31,0.66,0.66V73.64z"/>
	<path class="st0" d="M75.56,74.3c-0.35,0-0.66-0.31-0.66-0.66V51.06c0-0.35,0.31-0.66,0.66-0.66h2.71c0.35,0,0.66,0.31,0.66,0.66
		V70.5h4.76c0.27,0,0.5,0.23,0.5,0.5v2.8c0,0.27-0.23,0.5-0.5,0.5H75.56z"/>
	<path class="st0" d="M91.5,50.4c3.94,0,6.92,2.78,6.92,6.53V67.8c0,3.75-2.98,6.5-6.92,6.5h-4.56c-0.35,0-0.66-0.31-0.66-0.66
		V51.06c0-0.35,0.31-0.66,0.66-0.66H91.5z M94.4,57.26c0-2.24-1.51-3.05-2.9-3.05h-1.2V70.5h1.2c1.39,0,2.9-0.81,2.9-3.05V57.26z"/>
	<path class="st0" d="M105.59,73.73c0,0.35-0.31,0.66-0.66,0.66h-2.71c-0.35,0-0.66-0.31-0.66-0.66V51.15
		c0-0.35,0.31-0.66,0.66-0.66h2.71c0.35,0,0.66,0.31,0.66,0.66V73.73z"/>
	<path class="st0" d="M117.97,51.15c0-0.35,0.31-0.66,0.66-0.66h2.71c0.35,0,0.66,0.31,0.66,0.66v22.58c0,0.35-0.31,0.66-0.66,0.66
		h-2.4c-0.31,0-0.58-0.27-0.66-0.46l-4.68-11.41v11.21c0,0.35-0.31,0.66-0.66,0.66h-2.71c-0.35,0-0.66-0.31-0.66-0.66V51.15
		c0-0.35,0.31-0.66,0.66-0.66h2.4c0.31,0,0.58,0.27,0.66,0.46l4.68,11.64V51.15z"/>
	<path class="st0" d="M134.75,73.14c-0.77,1.08-1.86,1.39-2.9,1.39c-4.02,0-6.07-2.75-6.07-6.46V56.63c0-3.71,2.05-6.5,6.07-6.5
		c3.83,0,6.19,2.71,6.19,6.26c0,0.35-0.31,0.66-0.66,0.66h-2.71c-0.35,0-0.65-0.31-0.66-0.66c-0.04-1.82-0.77-2.46-2.17-2.46
		c-1.39,0-2.07,0.91-2.05,2.54v11.16c0,2.24,0.66,3.09,2.05,3.09c1.39,0,2.17-0.89,2.17-3.02v-2.57h-1.62
		c-0.31,0-0.58-0.27-0.58-0.58v-2.64c0-0.31,0.27-0.58,0.58-0.58h4.99c0.35,0,0.66,0.31,0.66,0.66v11.75c0,0.27-0.27,0.54-0.54,0.54
		h-2.2c-0.31,0-0.54-0.27-0.54-0.54V73.14z"/>
</g>
<g>
	<path class="st0" d="M239.3,73.58c0,0.34-0.32,0.65-0.68,0.65h-2.8c-0.36,0-0.68-0.31-0.68-0.65V51.3c0-0.34,0.32-0.65,0.68-0.65
		h8.39c0.28,0,0.52,0.23,0.52,0.5v2.7c0,0.27-0.24,0.5-0.52,0.5h-4.91v6.69h3.48c0.28,0,0.52,0.23,0.52,0.5v2.7
		c0,0.27-0.24,0.5-0.52,0.5h-3.48V73.58z"/>
	<path class="st0" d="M246.77,68.08V51.3c0-0.34,0.32-0.65,0.68-0.65h2.8c0.36,0,0.68,0.31,0.68,0.65v16.37
		c0,2.21,0.76,3.05,2.24,3.05s2.24-0.84,2.24-3.05V51.3c0-0.34,0.32-0.65,0.68-0.65h2.8c0.36,0,0.68,0.31,0.68,0.65v16.78
		c0,3.66-2.2,6.37-6.39,6.37S246.77,71.74,246.77,68.08z"/>
	<path class="st0" d="M264.9,54.35h-2.64c-0.32,0-0.6-0.27-0.6-0.57v-2.55c0-0.31,0.28-0.57,0.6-0.57h9.43c0.32,0,0.6,0.27,0.6,0.57
		v2.55c0,0.31-0.28,0.57-0.6,0.57h-2.64v19.23c0,0.34-0.32,0.65-0.68,0.65h-2.8c-0.36,0-0.68-0.31-0.68-0.65V54.35z"/>
	<path class="st0" d="M274.93,68.08V51.3c0-0.34,0.32-0.65,0.68-0.65h2.8c0.36,0,0.68,0.31,0.68,0.65v16.37
		c0,2.21,0.76,3.05,2.24,3.05s2.24-0.84,2.24-3.05V51.3c0-0.34,0.32-0.65,0.68-0.65h2.8c0.36,0,0.68,0.31,0.68,0.65v16.78
		c0,3.66-2.2,6.37-6.39,6.37S274.93,71.74,274.93,68.08z"/>
	<path class="st0" d="M301.06,66.79l2.28,6.79c0,0.34-0.32,0.65-0.68,0.65h-2.56c-0.4,0-0.6-0.31-0.72-0.65l-1.72-5.42
		c-0.4,0.08-0.8,0.11-1.2,0.11h-1.2v5.3c0,0.34-0.32,0.65-0.68,0.65h-2.8c-0.36,0-0.68-0.31-0.68-0.65V51.3
		c0-0.34,0.32-0.65,0.68-0.65h4.67c3.59,0,7.03,2.36,7.03,6.52v4.65C303.49,64,302.53,65.68,301.06,66.79z M299.34,61.68v-3.9
		c0-2.29-1.6-3.43-3.04-3.43h-1.04v10.4h1.04C297.74,64.75,299.34,63.96,299.34,61.68z"/>
	<path class="st0" d="M311.25,61.04h3.48c0.28,0,0.52,0.23,0.52,0.5v2.7c0,0.27-0.24,0.5-0.52,0.5h-3.48v5.77h4.91
		c0.28,0,0.52,0.23,0.52,0.5v2.74c0,0.27-0.24,0.5-0.52,0.5h-8.39c-0.36,0-0.68-0.31-0.68-0.65V51.3c0-0.34,0.32-0.65,0.68-0.65
		h8.39c0.28,0,0.52,0.23,0.52,0.5v2.7c0,0.27-0.24,0.5-0.52,0.5h-4.91V61.04z"/>
	<path class="st0" d="M319.49,67.59h2.8c0.36,0,0.68,0.31,0.68,0.65c0.01,0.25,0.03,0.51,0.06,0.76c0.13,1.15,0.77,1.93,2.43,1.86
		c1.1-0.05,1.79-0.45,1.98-1.18c0.11-0.44,0.12-0.83,0.12-0.98c0-5.26-8.75-4.2-8.75-11.98c0-2.36,0.32-6.33,6.11-6.33
		c5.63,0,5.91,4.5,5.99,6.29c0,0.34-0.32,0.65-0.68,0.65h-2.8c-0.36,0-0.68-0.31-0.68-0.65c-0.03-0.29-0.05-0.59-0.08-0.89
		c-0.12-0.9-0.59-1.72-1.78-1.72c-1.94,0-1.93,2.17-1.93,2.38c0,5.38,8.75,3.97,8.75,11.82c0,4.84-2.64,6.18-6.31,6.18
		c-3.32,0-6.59-1.56-6.59-6.22C318.81,67.89,319.13,67.59,319.49,67.59z"/>
</g>
<g>
	<path class="st3" d="M159.82,66.84v0.26c0,4.22-3.42,6.85-7,6.85h-4.93c-0.45-0.04-0.79-0.38-0.79-0.79V51.45
		c0-0.41,0.34-0.72,0.79-0.75h4.44c3.58,0,7,2.33,7,6.55v0.56c0,1.58-0.56,3.16-2.11,4.06C158.42,62.32,159.82,64.69,159.82,66.84z
		 M151.47,60.55h1.23c1.05,0,2.05-0.91,2.05-2.87v-0.36c0-1.96-1-2.78-2.05-2.78h-1.23V60.55z M155,66.94
		c0-1.95-1.27-3.04-2.32-3.04h-1.23v6.18h1.23C153.72,70.08,155,68.9,155,66.94z"/>
	<path class="st3" d="M175.02,73.16c0,0.41-0.34,0.75-0.75,0.79h-3.61c-0.38-0.04-0.6-0.41-0.72-0.79l-1.47-4.74
		c-0.19,0-0.84,0.04-0.99,0.04h-0.23v4.7c0,0.41-0.38,0.75-0.75,0.79h-3.11c-0.41-0.04-0.75-0.38-0.75-0.79V51.45
		c0-0.41,0.34-0.72,0.75-0.75h4.59c3.58,0,7,2.48,7,6.7v4.37c0,2.07-0.83,3.69-2.11,4.85L175.02,73.16z M168.11,63.26
		c1.01,0,1.98-0.97,1.98-2.86v-3.12c0-1.89-0.97-2.86-1.98-2.86h-1.03v8.84H168.11z"/>
	<path class="st3" d="M177.66,51.45c0-0.41,0.34-0.72,0.75-0.75h3.65c0.38,0.04,0.71,0.34,0.71,0.75v21.72
		c0,0.41-0.34,0.75-0.71,0.79h-3.65c-0.41-0.04-0.75-0.38-0.75-0.79V51.45z"/>
	<path class="st3" d="M195.16,72.82c-0.83,0.9-2.07,1.35-2.97,1.35c-4.06,0-6.21-2.82-6.21-6.66V57.13c0-3.84,2.15-6.7,6.21-6.7
		c4.06,0,6.17,2.86,6.17,6.7c0,0.41-0.38,0.75-0.75,0.79h-2.61c-0.41-0.04-0.75-0.38-0.75-0.79V56.9c-0.06-1.6-0.7-2.04-2.06-2.07
		c-0.9-0.02-1.8,0.53-1.8,2.07v10.84c0,1.54,0.97,2.07,1.88,2.07c0.94,0,1.78-0.79,1.78-2.07v-3.16h-1.59
		c-0.38,0-0.64-0.3-0.68-0.64v-2.63c0.04-0.3,0.3-0.64,0.68-0.64h5.34c0.3,0,0.53,0.38,0.56,0.6v12.12c0,0.3-0.23,0.53-0.45,0.56
		h-2.3c-0.23-0.04-0.45-0.26-0.45-0.56V72.82z"/>
	<path class="st3" d="M213.98,51.45v21.72c0,0.41-0.34,0.75-0.75,0.79h-2.87c-0.45-0.04-0.75-0.38-0.75-0.79v-7.83h-3.45v7.83
		c0,0.41-0.38,0.75-0.79,0.79h-2.87c-0.45-0.04-0.75-0.38-0.75-0.79V51.45c0-0.41,0.3-0.72,0.75-0.75h2.87
		c0.41,0.04,0.79,0.34,0.79,0.75v9.45h3.45v-9.45c0-0.41,0.3-0.72,0.75-0.75h2.87C213.64,50.73,213.98,51.03,213.98,51.45z"/>
	<path class="st3" d="M224.25,55.06v18.1c0,0.41-0.34,0.75-0.71,0.79h-3.65c-0.41-0.04-0.75-0.38-0.75-0.79v-18.1h-2.22
		c-0.34,0-0.64-0.3-0.68-0.6v-3.12c0.04-0.34,0.34-0.64,0.68-0.64h9.56c0.34,0,0.64,0.3,0.68,0.64v3.12c-0.04,0.3-0.34,0.6-0.68,0.6
		H224.25z"/>
</g>
<g>
	<path class="st2" d="M32.73,18.16c0.99-1.31,1.99-2.63,2.98-3.94c0.31-0.4,0.62-0.82,0.75-1.32c0-0.54,0.2-0.99-0.32-1.38
		c-1.03-0.77-3.06-0.24-4.23-0.14c-1.59,0.13-3.18,0.26-4.77,0.38c-0.24,0.02-0.48,0.04-0.7-0.06c-0.28-0.13-0.44-0.42-0.58-0.69
		c-0.33-0.63-0.66-1.27-0.99-1.9c-0.59-1.13-1.19-2.26-1.87-3.35c-0.49-0.77-0.8-1.81-1.92-1.83c-1.53-0.03-2.35,2.57-2.87,3.7
		c-0.85,1.85-1.56,3.76-2.14,5.72c-0.45,1.54-2.67,1.4-3.92,1.89c-0.65,0.26-1.31,0.52-1.99,0.69c-0.3,0.08-0.61,0.14-0.88,0.28
		c-0.59,0.3-1.97,1.28-2.34,1.87c-0.55,0.88,0.27,1.58,0.99,2.16c1.77,1.43,4,2.03,5.91,3.21c1.16,0.71,1.93,1.24,2.04,2.63
		c0.11,1.29,0.06,2.6,0.28,3.89c0.22,1.32,0.14,2.58,0.89,3.77c0.18,0.29,0.41,0.57,0.73,0.67c0.55,0.17,1.06-0.3,1.43-0.73
		c0.73-0.84,1.37-1.6,1.94-2.57c0.41-0.69,0.83-1.38,1.31-2.03c0.4-0.56,0.61-1.22,1.11-1.71c0.62-0.62,1.68-0.78,2.45-0.38
		c0.4,0.2,0.64,0.29,1.06,0.38c0.49,0.1,0.91,0.44,1.33,0.68c0.45,0.25,0.94,0.43,1.42,0.61c0.91,0.34,1.83,0.68,2.78,0.91
		c0.65,0.16,1.3,0.39,1.97,0.47c0.17,0.02,0.35,0.02,0.49-0.07c0.13-0.08,0.19-0.23,0.24-0.38c0.16-0.51,0.12-0.95-0.07-1.45
		c-0.65-1.72-1.31-3.44-1.99-5.15c-0.34-0.84-0.68-1.68-1.02-2.51c-0.33-0.8-0.31-1.25,0.24-1.97
		C32.56,18.39,32.64,18.27,32.73,18.16z"/>
	<path class="st1" d="M18.07,74.37c0,0.03,0,0.06,0,0.1c0.01,0.34-0.07,0.78,0.11,1.08c0.16,0.26,0.11,0.61-0.03,0.88
		c-0.15,0.27-0.38,0.48-0.61,0.68c-0.13,0.11-0.26,0.22-0.39,0.33c-0.03,0.03-0.11,0.04-0.16,0.07c-0.07,0.04-0.13,0.1-0.2,0.15
		c-0.29,0.23-0.56,0.49-0.79,0.78c-0.22,0.27-0.43,0.58-0.45,0.93c-0.05,0.63,0.59,0.83,1.1,0.9c0.74,0.09,1.49,0.1,2.21-0.1
		c0.52-0.14,1.14-0.25,1.33-0.83c0.05-0.14,0.06-0.29,0.16-0.4c0.14-0.16,0.4-0.15,0.61-0.19c0.3-0.05,0.57-0.23,0.83-0.41
		c0.08-0.06,0.17-0.11,0.21-0.2c0.09-0.17,0.04-0.47,0.01-0.66c-0.03-0.27-0.06-0.53-0.09-0.8c-0.01-0.11-0.03-0.22-0.06-0.33
		c-0.03-0.11-0.09-0.22-0.12-0.34c-0.03-0.11-0.04-0.23,0.01-0.34c0.22,0.07,0.42-0.15,0.49-0.35c0.06-0.19,0.05-0.39,0.05-0.58
		c-0.03-0.63-0.03-1.25,0-1.88c0.01-0.15,0.02-0.31,0.07-0.46c0.04-0.1,0.09-0.2,0.13-0.31c0.08-0.23,0.06-0.48,0.04-0.73
		c-0.01-0.15-0.02-0.31,0.01-0.46c0.02-0.14,0.07-0.26,0.1-0.4c0.05-0.22,0.06-0.45,0.08-0.68c0.04-0.41,0.13-0.86,0.32-1.24
		c0.17-0.34,0.15-0.61,0.2-0.99c0.02-0.18,0.07-0.36,0.18-0.49c0.05-0.06,0.11-0.11,0.16-0.17c0.07-0.1,0.09-0.22,0.1-0.33
		c0.04-0.34,0.09-0.67,0.04-1c-0.04-0.31,0.04-0.6,0-0.91c-0.06-0.39-0.11-0.79-0.17-1.18c0.26-0.03,0.54-0.06,0.72-0.25
		c-0.09,0.39-0.08,0.81,0.03,1.2c0.06,0.21,0.14,0.41,0.12,0.63c-0.02,0.14-0.08,0.27-0.08,0.41c0,0.12,0.06,0.23,0.1,0.35
		c0.17,0.48,0.05,1.06,0.34,1.48c0.19,0.28,0.41,0.51,0.49,0.85c0.1,0.38,0.07,0.83,0.1,1.22c0.02,0.31,0.06,0.64,0.27,0.86
		c0.08,0.08,0.17,0.14,0.23,0.23c0.14,0.21,0.02,0.5,0.05,0.75c0.06,0.56,0.2,1.1,0.34,1.65c0.13,0.51,0.17,1.04,0.24,1.57
		c0.02,0.17,0.02,0.34,0.02,0.51c0,0.35,0,0.7,0,1.05c0,0.09,0,0.19,0.04,0.27c0.18,0.39,0.6,0.07,0.81,0.33
		c0.17,0.22-0.09,0.49-0.07,0.73c0.03,0.41,0.14,0.81,0.19,1.21c0.04,0.34-0.07,0.73-0.09,1.07c-0.01,0.26,0,0.53,0.04,0.79
		c0.01,0.07,0.02,0.14,0.05,0.2c0.05,0.1,0.14,0.18,0.24,0.23c0.18,0.1,0.39,0.12,0.59,0.15c0.63,0.07,1.27,0.07,1.9,0.08
		c0.23,0,0.47,0,0.7-0.05c0.26-0.06,0.51-0.19,0.77-0.27c0.73-0.2,0.68-1.02,0.29-1.6c-0.11-0.16-0.24-0.29-0.35-0.44
		c-0.24-0.31-0.4-0.68-0.49-1.07c-0.05-0.2-0.08-0.41-0.1-0.62c-0.01-0.17,0.03-0.43-0.05-0.57c-0.02-0.05-0.06-0.09-0.06-0.14
		c0-0.1,0.13-0.14,0.22-0.19c0.15-0.08,0.21-0.27,0.2-0.44c-0.01-0.17-0.08-0.33-0.13-0.5c-0.17-0.51-0.18-1.07-0.05-1.59
		c0.05-0.2-0.01-0.31-0.03-0.49c-0.01-0.19,0.04-0.38,0.02-0.57c-0.04-0.36-0.15-0.72-0.08-1.08c0.05-0.26,0.19-0.53,0.08-0.76
		c-0.03-0.06-0.07-0.11-0.1-0.17c-0.03-0.08-0.03-0.18-0.02-0.27c0.02-0.56-0.09-1.1-0.02-1.66c0.07-0.61-0.02-1.26-0.05-1.88
		c-0.01-0.13-0.01-0.26-0.04-0.39c-0.02-0.11-0.07-0.21-0.1-0.32c-0.05-0.18-0.06-0.36-0.08-0.55c-0.04-0.47-0.14-0.98-0.11-1.45
		c0.02-0.41,0.06-0.8,0.05-1.21c-0.01-0.31-0.03-0.62-0.05-0.93c-0.02-0.28,0-0.56-0.02-0.85c-0.04-0.58,0.22-1.06,0.08-1.62
		c-0.11-0.44,0.01-0.97-0.07-1.42c-0.04-0.26-0.07-0.51-0.14-0.77c-0.08-0.29-0.21-0.57-0.33-0.84c-0.1-0.22-0.2-0.43-0.34-0.63
		c-0.25-0.36-0.7-1.42-0.17-1.71c0.19-0.11,0.43-0.09,0.64-0.13c0.21-0.05,0.44-0.22,0.4-0.44c-0.01-0.08-0.06-0.15-0.09-0.22
		c-0.04-0.1-0.05-0.21-0.07-0.31c-0.08-0.71-0.16-1.42-0.3-2.12c-0.15-0.74-0.1-1.48,0.01-2.21c0.02-0.14,0.04-0.29,0.07-0.43
		c0.05-0.34,0.11-0.69,0.23-1.01c0.31-0.84,1.37-1,1.69-1.84c0.09-0.25-0.08-1.03-0.12-1.37c-0.01-0.08,0.11-0.15,0.15-0.2
		c0.07-0.09,0.14-0.18,0.2-0.27c0.12-0.17,0.24-0.35,0.33-0.54c0.09-0.17,0.2-0.33,0.28-0.51c0.39-0.86,0.77-1.72,1.15-2.59
		c0.18-0.42,0.39-0.85,0.53-1.28c0.15-0.44,0.26-0.9,0.38-1.37c0.11-0.44,0.2-0.88,0.29-1.32c0.06-0.33,0.13-0.64,0.16-0.98
		c0.06-0.59,0.05-1.14,0.02-1.73c-0.03-0.54-0.05-1.12,0.19-1.62c0.11-0.23,0.3-0.42,0.41-0.65c0.09-0.19,0.16-0.39,0.24-0.59
		c0.21-0.47,0.34-0.96,0.4-1.47c0.01-0.08,0.02-0.16,0-0.23c-0.02-0.07-0.06-0.14-0.1-0.2c-0.15-0.21-0.34-0.38-0.5-0.58
		c-0.15-0.19-0.26-0.42-0.44-0.59c-0.1-0.09-0.21-0.17-0.34-0.21C35.35,27,34.86,26.91,34.8,27c-0.04,0.06,0.16,0.51,0.2,0.59
		c0.09,0.23,0.21,0.46,0.29,0.7c0.07,0.2,0.05,0.47,0.04,0.68c-0.02,0.35-0.09,1.16-0.61,1.08c-0.12-0.02-0.22-0.12-0.29-0.22
		c-0.07-0.1-0.14-0.22-0.18-0.34c-0.1-0.26-0.15-0.58-0.39-0.73c-0.06-0.04-0.13-0.07-0.21-0.07c-0.08-0.01-0.16,0-0.23,0.03
		c-0.74,0.3,0.1,1.41,0.11,1.9c0.02,0.69,0.04,1.4-0.16,2.06c-0.09,0.28-0.22,0.55-0.34,0.82c-0.39,0.83-0.79,1.68-1.09,2.56
		c-0.08,0.24-0.15,0.48-0.2,0.73c-0.08,0.41-0.09,0.83-0.14,1.24c-0.02,0.19-0.05,0.38-0.13,0.55c-0.05,0.12-0.13,0.23-0.21,0.34
		c-0.25,0.35-0.52,0.69-0.78,1.03c-0.13,0.17-0.26,0.34-0.39,0.52c-0.07,0.09-0.19,0.39-0.33,0.37c-0.01,0-0.03-0.01-0.04-0.01
		c-0.01,0-0.03,0-0.04,0.01c-0.36,0.13-0.54,0.34-0.76,0.64c-0.1,0.14-0.35,0.62-0.59,0.44c-0.06-0.04-0.08-0.12-0.09-0.19
		c-0.02-0.1-0.03-0.21-0.04-0.31c-0.01-0.13,0-0.3,0.13-0.35c0.05-0.02,0.1-0.02,0.15-0.04c0.05-0.02,0.1-0.07,0.08-0.12
		c-0.01-0.02-0.03-0.04-0.04-0.05c-0.14-0.12-0.22-0.3-0.21-0.48c0-0.18,0.09-0.36,0.23-0.47c0.09-0.07,0.19-0.11,0.26-0.19
		c0.02-0.02,0.03-0.04,0.03-0.06c0-0.03-0.02-0.06-0.04-0.08c-0.08-0.09-0.13-0.21-0.14-0.33c-0.01-0.04-0.01-0.08,0.01-0.12
		c0.04-0.08,0.15-0.08,0.24-0.08c0.18,0.01,0.38-0.01,0.49-0.15c-0.11-0.04-0.24-0.04-0.36-0.07c-0.12-0.03-0.24-0.09-0.29-0.2
		c0.01,0.03,0.15,0.07,0.18,0.08c0.07,0.02,0.14,0.04,0.21,0.05c0.13,0.02,0.26,0.01,0.38-0.03c0.24-0.07,0.45-0.24,0.55-0.47
		c-0.17,0.28-0.54,0.3-0.82,0.2c-0.35-0.13-0.6-0.44-0.71-0.79c-0.03-0.09-0.05-0.17-0.06-0.26c0.08,0.11,0.21,0.19,0.34,0.2
		c-0.09-0.07-0.13-0.19-0.16-0.31c-0.02-0.08-0.04-0.16-0.06-0.24c-0.03-0.16-0.05-0.32-0.09-0.48c-0.05-0.2-0.18-0.4-0.17-0.61
		c0-0.19-0.07-0.38-0.19-0.54c-0.17-0.24-0.25-0.52-0.4-0.78c-0.11-0.2-0.27-0.37-0.41-0.55c-0.08-0.09-0.19-0.17-0.28-0.24
		c-0.1-0.08-0.2-0.17-0.29-0.25c0.07,0.02,0.15,0.04,0.22,0.07c0.05,0.02,0.12,0.04,0.14,0.09c-0.06-0.21-0.26-0.35-0.45-0.47
		c-0.12-0.08-0.26-0.12-0.38-0.19c-0.36-0.2-0.78-0.34-1.18-0.46c-0.72-0.23-1.58-0.37-2.32-0.08c-0.18,0.07-0.34,0.17-0.52,0.25
		c-0.27,0.13-0.56,0.21-0.86,0.24c0,0,0.04,0.05,0.05,0.06c-0.13,0.08-0.29,0.13-0.42,0.21c-0.14,0.08-0.26,0.18-0.36,0.31
		c-0.08,0.11-0.14,0.24-0.25,0.32c-0.09,0.07-0.21,0.08-0.33,0.1c0.01,0.06,0.06,0.11,0.12,0.13c0.06,0.02,0.12,0.02,0.18,0.01
		c-0.16,0.14-0.35,0.26-0.52,0.4c-0.09,0.07-0.17,0.14-0.25,0.22c-0.06,0.06-0.2,0.16-0.23,0.24c-0.13,0.15-0.24,0.32-0.3,0.52
		c-0.05,0.16-0.05,0.32-0.11,0.48c-0.09,0.22-0.29,0.4-0.52,0.45c0.14,0.06,0.31,0.05,0.43-0.03c-0.06,0.27-0.25,0.48-0.34,0.73
		c-0.09,0.25-0.08,0.53,0.03,0.77c0.05,0.11,0.13,0.21,0.18,0.32c0.06,0.11,0.1,0.23,0.07,0.35c-0.04,0.22-0.27,0.35-0.48,0.4
		c0.01,0.11,0.12,0.17,0.23,0.2c0.14,0.03,0.3,0.01,0.43-0.06c0.05,0.22,0.1,0.45,0.05,0.67c-0.05,0.22-0.25,0.42-0.47,0.4
		c0.09,0.14,0.26,0.21,0.42,0.19c-0.06,0.01,0.11,0.48,0.13,0.52c0.04,0.08,0.1,0.16,0.16,0.23c0.06,0.07,0.14,0.12,0.19,0.19
		c0.13,0.17,0.17,0.4,0.31,0.57c0.08,0.1,0.2,0.15,0.28,0.25c0.1,0.11,0.21,0.36,0.07,0.48c-0.06,0.04-0.14,0.06-0.21,0.07
		c-0.13,0.02-0.25,0.03-0.38,0.02c-0.08,0-0.17-0.01-0.24-0.05c-0.1-0.07-0.12-0.21-0.18-0.32c-0.05-0.11-0.14-0.19-0.23-0.27
		c-0.05-0.05-0.1-0.09-0.15-0.14c-0.35-0.32-0.45-0.81-0.69-1.2c-0.26-0.44-0.61-0.82-0.89-1.25c-0.27-0.43-0.39-0.94-0.58-1.4
		c-0.06-0.14-0.08-0.29-0.11-0.44c-0.23-1.32-0.91-2.43-1.3-3.69c-0.05-0.17-0.1-0.34-0.16-0.51c-0.06-0.17-0.12-0.35-0.09-0.53
		c0.03-0.25,0.2-0.46,0.26-0.7c0.06-0.28-0.03-0.56-0.05-0.84c-0.03-0.35,0-0.62,0.13-0.95c0.09-0.23,0.15-0.54-0.04-0.71
		c-0.11-0.11-0.3-0.13-0.44-0.07c-0.38,0.14-0.36,0.56-0.45,0.9c-0.04,0.15-0.09,0.35-0.28,0.32c-0.2-0.03-0.37-0.09-0.51-0.24
		c-0.03-0.04-0.06-0.08-0.1-0.11c-0.04-0.04-0.08-0.07-0.12-0.11c-0.15-0.15-0.24-0.33-0.34-0.52c-0.17-0.32-0.34-0.63-0.53-0.94
		c-0.04-0.07-0.09-0.14-0.13-0.21c-0.1-0.16-0.2-0.32-0.29-0.49c-0.09-0.18-0.19-0.38-0.39-0.45c-0.19-0.05-0.46,0.08-0.43,0.3
		c0.02,0.15,0.05,0.29,0.11,0.43c0.04,0.11,0.1,0.21,0.16,0.31c0.12,0.19,0.22,0.37,0.31,0.58c0.03,0.08,0.09,0.16,0.14,0.24
		c0.07,0.14,0.14,0.28,0.22,0.43c0.02,0.04,0.04,0.08,0.04,0.12c0,0.04-0.01,0.09-0.05,0.11c-0.16,0.09-0.38-0.16-0.48-0.25
		c-0.05-0.05-0.1-0.09-0.15-0.14c-0.1-0.09-0.2-0.18-0.29-0.27c-0.17-0.15-0.33-0.31-0.51-0.44c-0.19-0.15-0.39-0.29-0.58-0.44
		c-0.14-0.1-0.33-0.21-0.51-0.18c-0.17,0.03-0.27,0.19-0.24,0.36c0.02,0.1,0.07,0.19,0.13,0.26c0.07,0.09,0.15,0.16,0.22,0.24
		c0.11,0.1,0.21,0.21,0.32,0.31c0.08,0.08,0.16,0.16,0.26,0.2c0.09,0.04,0.13,0.11,0.21,0.18c0.09,0.07,0.18,0.14,0.26,0.21
		c0.04,0.04,0.09,0.07,0.13,0.11c0.07,0.06,0.14,0.14,0.22,0.19c0.08,0.06,0.16,0.09,0.23,0.18c0.02,0.03,0.04,0.07,0.04,0.11
		c0,0.04-0.02,0.08-0.05,0.1c-0.02,0.01-0.05,0.02-0.08,0.02c-0.35,0-0.73-0.16-1.03-0.33c-0.07-0.04-0.14-0.08-0.21-0.12
		c-0.29-0.15-0.6-0.26-0.91-0.36C9,30.27,8.78,30.24,8.66,30.42c-0.06,0.09-0.07,0.21-0.04,0.31c0.03,0.1,0.11,0.19,0.2,0.25
		C8.86,31,8.9,31.01,8.94,31.03c0.28,0.12,0.57,0.22,0.84,0.35c0.05,0.02,0.1,0.05,0.15,0.08c0.15,0.08,0.3,0.17,0.46,0.23
		c0.17,0.07,0.34,0.14,0.51,0.21c0.09,0.04,0.19,0.08,0.23,0.18c0.07,0.2-0.21,0.32-0.41,0.35c-0.5,0.06-0.99,0.13-1.49,0.19
		c-0.1,0.01-0.24,0.04-0.31,0.11c-0.1,0.09-0.1,0.26-0.02,0.37c0.08,0.11,0.21,0.17,0.34,0.19c0.13,0.02,0.27-0.01,0.4-0.03
		c0.18-0.03,0.35-0.07,0.53-0.08c0.2-0.02,0.41-0.04,0.61-0.05c0.12-0.01,0.25-0.02,0.36,0.03c0.03,0.01,0.06,0.03,0.09,0.04
		c0.04,0.02,0.09,0.02,0.13,0.03c0.11,0.01,0.27,0.02,0.36,0.1c0.07,0.06,0.12,0.13,0.18,0.19c0.06,0.06,0.14,0.11,0.21,0.16
		c0.16,0.11,0.32,0.22,0.48,0.33c0.02,0.01,0.04,0.03,0.06,0.04c0.17,0.18,0.09,0.53,0.12,0.75c0.05,0.39,0.15,0.78,0.24,1.17
		c0.16,0.76,0.35,1.51,0.55,2.26c0.05,0.18,0.1,0.37,0.18,0.54c0.09,0.21,0.23,0.4,0.3,0.62c0.06,0.17,0.08,0.35,0.14,0.52
		c0.4,1.18,1.04,2.3,1.46,3.48c0.01,0.03-0.68,0.29-0.69,0.53c-0.02,0.43,0.38,0.74,0.55,1.07c0.06,0.06,0.13,0.11,0.18,0.18
		c0.05,0.06,0.07,0.14,0.1,0.22c0.17,0.47,0.39,0.91,0.67,1.32c0.19,0.28,0.42,0.59,0.38,0.93c-0.02,0.22-0.15,0.41-0.23,0.62
		c-0.17,0.43-0.12,0.9-0.09,1.35c0.03,0.47-0.04,0.92-0.1,1.38c-0.13,0.99-0.39,1.97-0.65,2.93c-0.04,0.14-0.08,0.3-0.04,0.44
		c0.09,0.3,0.45,0.39,0.76,0.43c0.33,0.05,0.53,0.01,0.65,0.37c0.11,0.32,0.02,0.68,0.08,1.02c0.05,0.25,0.15,0.51,0.09,0.75
		c-0.03,0.12,0.02,0.36-0.05,0.47c-0.34,0.5-0.2,0.3-0.53,0.8c-0.12,0.18-0.05,0.53-0.03,0.73c0.03,0.32,0.01,0.62,0,0.95
		c-0.03,1.14,0.04,2.28,0.21,3.41c0.01,0.09,0.03,0.17,0.04,0.26c0.02,0.12,0.04,0.25,0.06,0.37c0.04,0.28,0.07,0.58,0.14,0.85
		c0.07,0.26,0.12,0.51,0.11,0.78c-0.01,0.18-0.04,0.36-0.03,0.54c0.02,0.44,0.16,0.86,0.16,1.32c0,0.26-0.02,0.52,0.02,0.77
		c0.06,0.35,0.21,0.76,0.39,1.06c0.12,0.2,0.03,0.45,0.06,0.68c0.01,0.09,0.04,0.18,0.04,0.27c0,0.1-0.07,0.17-0.09,0.26
		c-0.02,0.15,0.02,0.33,0.02,0.48c0.01,0.33,0,0.67-0.03,1c-0.02,0.18-0.04,0.37,0.02,0.54c0.04,0.13,0.12,0.24,0.17,0.37
		c0.05,0.14,0.05,0.3,0.06,0.45C18.05,73.64,18.06,74.01,18.07,74.37z"/>
</g>
<g>
	<path class="st2" d="M67.35,82.16c-0.19-0.15-0.42-0.29-0.64-0.43c-0.02-0.04-0.04-0.09-0.06-0.13c0.09-0.08,0.17-0.15,0.25-0.22
		l-0.27-0.07c-0.16,0.11-0.02,0.33,0.2,0.6c0.15,0.09,0.32,0.18,0.49,0.28C67.32,82.19,67.33,82.18,67.35,82.16z"/>
	<path class="st2" d="M66.57,81.77c-0.46,0.25-0.21,0.62,0.13,0.98c0.16-0.13,0.31-0.27,0.46-0.41c-0.13-0.15-0.24-0.29-0.35-0.42
		C66.72,81.87,66.64,81.82,66.57,81.77z"/>
	<path class="st2" d="M83.36,83.99c0.24,0.11,0.71,0.43,0.88,0.14C83.98,83.56,83.77,83.83,83.36,83.99z"/>
	<path class="st2" d="M67.4,82.2c0.01,0.02,0.02,0.05,0.04,0.07c-0.04-0.02-0.08-0.05-0.13-0.07c-0.05,0.04-0.1,0.09-0.14,0.14
		c0.22,0.26,0.41,0.53,0.52,0.8C68.01,82.85,67.8,82.52,67.4,82.2z"/>
	<path class="st2" d="M65.52,83.18c0.18,0.16,0.45,0.07,0.75-0.12C66.05,83.03,65.8,83.05,65.52,83.18z"/>
	<path class="st2" d="M66.41,80.9l-0.09-0.02c0,0.02,0.01,0.04,0.01,0.06C66.36,80.92,66.38,80.91,66.41,80.9z"/>
	<path class="st2" d="M129.61,80.44c0.48,0.15,0.35,0.02,0.21-0.13L129.61,80.44z"/>
	<path class="st2" d="M13.66,80.63c0.52-0.2,0.34-0.12-0.03-0.02C13.64,80.62,13.65,80.62,13.66,80.63z"/>
	<path class="st2" d="M66.95,81.33c0.1-0.09,0.19-0.16,0.26-0.2l-0.41-0.12C66.85,81.12,66.9,81.22,66.95,81.33z"/>
	<path class="st2" d="M276.57,82.02c-0.02,0.01-0.05,0.03-0.07,0.04c-0.12,0.19-0.28,0.39-0.44,0.59c0.13,0.12,0.25,0.23,0.38,0.34
		C276.78,82.64,277.03,82.27,276.57,82.02z"/>
	<path class="st2" d="M189.72,84.41c0.24,0.1,0.71,0.43,0.88,0.14C190.33,83.98,190.12,84.25,189.72,84.41z"/>
	<path class="st2" d="M235.94,80.53c0.48,0.14,0.35,0.02,0.21-0.13L235.94,80.53z"/>
	<path class="st2" d="M276.86,83.31c0.3,0.19,0.57,0.28,0.75,0.12C277.34,83.3,277.09,83.27,276.86,83.31z"/>
	<path class="st2" d="M329.48,80.88c0.01-0.01,0.02-0.02,0.03-0.02C329.14,80.76,328.96,80.68,329.48,80.88z"/>
	<path class="st2" d="M191.57,84.06c0.02,0.02,0.04,0.05,0.06,0.07C191.61,84.11,191.59,84.08,191.57,84.06z"/>
	<path class="st2" d="M204.5,84.41c-0.01,0-0.03,0-0.04-0.01c-0.23,0.21,0.39,0.47,0.72,0.45C205.23,84.68,205.11,84.51,204.5,84.41
		z"/>
	<path class="st2" d="M42.36,79.9l0.15-0.45c0.05-0.46-0.5,0.14-1,0.52C41.73,79.89,42,79.83,42.36,79.9z"/>
	<path class="st2" d="M66.81,81.92c0.11,0.13,0.22,0.27,0.35,0.42c0.05-0.05,0.1-0.09,0.14-0.14C67.13,82.1,66.96,82.01,66.81,81.92
		z"/>
	<path class="st2" d="M67.7,84.03c0.23-0.07,0.39-0.15,0.53-0.23c0.04-0.02,0.09-0.05,0.13-0.07l-0.13,0.06L67.7,84.03z"/>
	<path class="st2" d="M20.67,80.18c-0.3,0.03-0.65,0.1-1.08,0.29C19.74,80.83,20.15,80.44,20.67,80.18z"/>
	<path class="st2" d="M10.07,80.27C10.01,80.22,9.74,80.24,10.07,80.27L10.07,80.27z"/>
	<path class="st2" d="M8.52,82.04c0.06,0.04,0.11,0.11,0.13,0.21C8.65,82.15,8.59,82.09,8.52,82.04z"/>
	<path class="st2" d="M25.25,82.86c-0.01,0-0.02,0-0.03,0C25.17,82.93,25.15,82.95,25.25,82.86z"/>
	<path class="st2" d="M9.99,80.34c-0.15,0.03-0.29,0.08-0.41,0.14C9.8,80.42,9.93,80.37,9.99,80.34z"/>
	<path class="st2" d="M9.36,80.31c0.08-0.01,0.17-0.03,0.28-0.05C9.35,80.19,9.32,80.24,9.36,80.31z"/>
	<path class="st2" d="M9.99,80.34c0.17-0.03,0.34-0.06,0.52-0.05c-0.22,0-0.36-0.01-0.45-0.02C10.08,80.28,10.06,80.31,9.99,80.34z"
		/>
	<path class="st2" d="M50.05,84.44l0.01-0.04c-0.01,0.01-0.03,0.01-0.05,0.02C50.03,84.43,50.04,84.44,50.05,84.44z"/>
	<path class="st2" d="M50.06,84.41c0.37-0.12,0.65-0.2,1.16,0.35l-0.8-1.63L50.06,84.41z"/>
	<path class="st2" d="M6,80.67l-0.52-0.43C5.27,80.61,5.59,80.67,6,80.67z"/>
	<path class="st2" d="M67.74,83.55c-0.01,0.09-0.03,0.19-0.1,0.27C67.84,83.73,67.84,83.63,67.74,83.55z"/>
	<path class="st2" d="M30.07,84.47c-0.08,0.09-0.21,0.19-0.43,0.26C29.98,84.7,30.09,84.59,30.07,84.47z"/>
	<path class="st2" d="M6.78,80.39c0.17-0.08,0.29-0.19,0.63-0.17L6.7,80.1C6.92,80.1,6.79,80.27,6.78,80.39z"/>
	<path class="st2" d="M6.08,81.75c-0.53-0.18-1.06-0.37-0.9,0.21c-0.03,0.01-0.06,0-0.09,0C5.59,82.03,6.04,82.16,6.08,81.75z"/>
	<path class="st2" d="M11.14,80.59c1.29,0.26-0.56-0.88-0.29-0.36C10.98,80.06,10.91,80.7,11.14,80.59z"/>
	<polygon class="st2" points="5.71,83.12 6.16,83.01 5.88,82.6 	"/>
	<path class="st2" d="M8.6,82.66c0.12,0.04,0.22,0.08,0.21,0.17l0.78-0.15C9.61,82.53,9.08,82.64,8.6,82.66z"/>
	<path class="st2" d="M8.6,82.66c-0.2-0.06-0.5-0.07-0.64-0.07C8.11,82.67,8.35,82.68,8.6,82.66z"/>
	<polygon class="st2" points="6.79,83.25 7.58,83.1 7.02,83.14 	"/>
	<path class="st2" d="M18.92,82.57l-0.86-0.13c-0.13,0.17,0.19,0.23,0.4,0.35C18.78,82.86,19.01,82.75,18.92,82.57z"/>
	<path class="st2" d="M15.49,83.88l0.41,0.24l-0.04-0.63C15.73,83.66,15.72,83.77,15.49,83.88z"/>
	<path class="st2" d="M18,83.99c-0.79,0.16,0.08,0.29,0.17,0.46C19.26,84.47,18.09,84.16,18,83.99z"/>
	<polygon class="st2" points="30.71,82.97 30.93,82.97 30.72,81.93 	"/>
	<path class="st2" d="M41.73,84.49c0.25,0.21-0.74,0.23-0.5,0.47c0.91-0.33,0.16,0.58,1.17,0.31
		C42.67,84.58,42.35,84.73,41.73,84.49z"/>
	<path class="st2" d="M41.73,84.49c-0.05-0.04-0.14-0.09-0.32-0.15C41.52,84.4,41.63,84.45,41.73,84.49z"/>
	<path class="st2" d="M301.64,80.23c-0.5-0.39-1.05-0.98-1-0.52l0.15,0.45C301.14,80.08,301.41,80.13,301.64,80.23z"/>
	<path class="st2" d="M274.78,83.98c0.03,0.02,0.09,0.05,0.13,0.07c0.14,0.08,0.3,0.15,0.53,0.23l-0.53-0.24L274.78,83.98z"/>
	<path class="st2" d="M323.55,80.71c-0.43-0.18-0.78-0.26-1.08-0.29C322.99,80.69,323.4,81.08,323.55,80.71z"/>
	<path class="st2" d="M333.07,80.51C333.4,80.49,333.13,80.47,333.07,80.51L333.07,80.51z"/>
	<path class="st2" d="M334.48,82.5c0.03-0.11,0.08-0.17,0.13-0.21C334.55,82.34,334.49,82.4,334.48,82.5z"/>
	<path class="st2" d="M317.89,83.11c0.09,0.09,0.08,0.07,0.03,0C317.91,83.11,317.9,83.11,317.89,83.11z"/>
	<path class="st2" d="M333.56,80.72c-0.12-0.06-0.26-0.1-0.41-0.14C333.21,80.62,333.34,80.67,333.56,80.72z"/>
	<path class="st2" d="M333.5,80.51c0.11,0.02,0.2,0.03,0.28,0.05C333.82,80.49,333.79,80.44,333.5,80.51z"/>
	<path class="st2" d="M333.07,80.51c-0.1,0.01-0.23,0.01-0.45,0.02c0.19,0,0.36,0.02,0.52,0.05
		C333.08,80.55,333.06,80.53,333.07,80.51z"/>
	<path class="st2" d="M293.09,84.69c0.02,0,0.02-0.02,0.04-0.02c-0.02,0-0.03-0.01-0.05-0.02L293.09,84.69z"/>
	<path class="st2" d="M291.92,85c0.51-0.54,0.79-0.47,1.16-0.35l-0.36-1.28L291.92,85z"/>
	<path class="st2" d="M337.66,80.5l-0.52,0.43C337.55,80.92,337.88,80.86,337.66,80.5z"/>
	<path class="st2" d="M337.14,80.92c-0.62,0.01-1.45-0.12-0.92,0.46c-0.64-0.85-1.13-0.37-1.98-1.1c0.02,0.21,0.3,0.4-0.46,0.29
		c-0.04,0.06-0.12,0.14-0.17,0.18c-0.02-0.01-0.03-0.01-0.05-0.02c0.02,0.01,0.03,0.02,0.04,0.03c-0.03,0.03-0.04,0.04,0.02,0.01
		c0.18,0.09,0.32,0.2,0.38,0.32c-0.39,0.47-1.6,0.43-2.01,0.67c-0.45-0.11,0.19-0.23-0.05-0.46l-0.62,0.36
		c-0.05-0.46-1.18-0.78-0.11-1.03l-0.96-0.04c-0.56-0.27-1.33-0.38-1.81-0.2c-0.45-0.11-1.15,0.49-0.75,0.14l-1.5,0.26l-0.01-0.11
		c-1.48-0.08-3.06,0.71-4.73-0.15c0.32-0.07,0.64-0.12,1.03-0.09c-0.38-0.2-0.82-0.32-1.26-0.02c0.08,0.05,0.15,0.07,0.23,0.11
		c-0.5,0.11-1.02,0.24-1.85,0.1l-0.15-0.4c-0.64,0.13-1.91-0.43-2.2-0.02c-0.67-1.08-3.1-0.28-4.22-0.49l-0.05,0.52
		c-0.77-0.04-1.52,0.09-2.48,0.28l0.05,0.46c-0.84,0.36-2.12-0.36-3.43-0.34c0.09-0.17,0.42-0.12,0.66-0.01
		c-1.54-1.06-3.32,0.7-4.72-0.08c-0.36,0.16-0.61,0.1-0.86-0.02c0.03,0,0.06-0.01,0.09-0.02c-0.04-0.01-0.09-0.01-0.15-0.01
		c-0.15-0.08-0.31-0.18-0.49-0.25c0.15,0.11,0.29,0.21,0.41,0.25c-0.27,0-0.69,0.05-1.1,0.16l-0.16-0.49
		c-0.03,0.01-0.06,0-0.09,0.01c-0.39-0.19-0.33,0.23-0.12,0.6c-0.21,0.08-0.4,0.17-0.54,0.29c-0.31-0.8-1.07,0.25-1.49-0.6
		c-0.28,0.41-2.05,0.28-2.28,1.14c-0.01-0.11-0.13-0.17,0.09-0.17c-0.45-0.11-0.9-0.21-1.31,0.03l-0.18-0.63l-1,0.82
		c-0.59-0.39-0.84-0.62-0.23-1.09c-1.45,0.72-1.17,0.26-2.41,0.97l0.07-0.4c-0.44,0.01-1.15,0.54-1.4,0.2
		c-0.96-0.78-4.84-0.19-7.33-0.94c0.46,1.2-1.16-0.55-1.27,0.37c-0.14-0.28-0.49-0.45-0.08-0.69c-1.29,0.26-1.92-0.48-2.82,0.28
		c-0.14-0.29,0.28-0.41,0.16-0.58c-0.1,0.06-0.41,0.24-0.54,0.07c-0.13-0.17,0.19-0.23,0.4-0.35c-1.23,0.02-1.44,0.79-1.55,1.56
		c-0.5-0.23-1.64,0.09-1.91-0.47l-1.82,0.67c0.06-0.24-0.24-0.6,0.05-0.69c-0.45-0.01-0.84-0.05-0.25-0.4
		c-4.36,1.63-8.83,0.01-13.12,0.87c-0.29-0.06-0.12-0.29-0.01-0.44c-0.79,0.62-0.76-0.33-1.19-0.42l-1.16,0.89
		c-0.47-0.27-0.1-0.54-0.14-0.72c-2.19-0.19-4.32,0.68-6.09,0.14c-0.56,0.32,0.13,0.72-0.61,0.83c1.01-0.92-2.17-0.44-1.52-1.09
		c-0.72,0.98-2.68,0.2-2.35,1.57c-0.89,0.08-0.74-0.59-0.48-0.71c-1.03,0.05-1.87,0.05-2.71-0.38c-0.57,0.32-4.73-0.36-5.65,0.67
		c0.63-0.67-0.05-0.35-0.65-0.64l0.55-0.59l-1.36,0.06c-0.28-0.06-0.36-0.03-0.35,0.02c-0.23,0.03,0.05,0.34-0.53,0.49
		c-0.93,0.03-0.97-0.29-1.48-0.6l0.14-0.09l-0.63-0.06c-0.46,0.02,1.64,0.59,0.13,0.89c-0.02-0.16-0.91-0.94-1.32-0.52
		c0.77-0.03,0.67,0.38,0.39,0.56l-1.08,0.04l0.36-0.75c-3.1,0.03-6.33,0.55-9.63,0.48c0.04,0.65-2.34,0.02-2.05,0.99l0.13-0.09
		c0.81,0.1-0.24,0.76-0.9,0.65c0.69-0.3-1.24-0.97,0.44-1.1l-1.3-0.46c-0.72-1.85-3.47,0.14-5.44-0.46
		c0.14,0.07,0.18,0.17,0.19,0.23c-1.75-0.6-3.93,0.48-4.33,0.18l-0.01,0.04c-0.53-0.04-1.06-0.05-1.04-0.36
		c-3.31,0.09-6.54-0.41-9.64-0.41l0.28,0.56c-0.27-0.01-0.52,0.03-0.72,0.16l-0.28-0.01c-0.29-0.17-0.39-0.58,0.39-0.56
		c-0.41-0.42-1.29,0.37-1.31,0.53c-1.51-0.29,0.58-0.88,0.12-0.89l-0.63,0.06l0.14,0.09c-0.32,0.19-0.45,0.39-0.74,0.51
		c-0.15-0.04-0.3-0.08-0.41-0.12c0,0.07-0.04,0.14-0.15,0.21c-0.17-0.19-0.37-0.28-0.59-0.31c-0.02-0.09-0.02-0.16-0.13-0.17
		c0-0.05-0.08-0.08-0.35-0.02l-1.36-0.05l0.48,0.51c-0.36,0.12-0.7,0.22-0.98,0.19c-0.53-0.2-0.3-0.47-0.07-0.73
		c-1.05,0.66-2.89-0.75-3.28-0.47c-0.77,0.06-0.29,0.6-0.5,0.94c-1.14-0.15,0.19-1.41-1.34-0.8c0.18,0.07,0.51,0.13,0.38,0.22
		c-0.31,0.07-0.74,0.59-1.17,1.03c-0.61,0.16-1.25,0.15-1.99,0.13c0.08,0.04,0.15,0.13,0.18,0.24c-0.22,0.09-0.43,0.19-0.63,0.27
		c0.08-1.09-1.71-0.43-2.4-1.35c0.65,0.65-2.53,0.19-1.52,1.11c-0.74-0.1-0.05-0.51-0.62-0.83c-1.77,0.55-3.91-0.3-6.09-0.1
		c-0.03,0.16,0.26,0.4-0.02,0.64c-0.14-0.1-0.27-0.15-0.42-0.16l-0.85-0.65c-0.43,0.09-0.39,1.04-1.18,0.43
		c0.11,0.15,0.28,0.38-0.01,0.44c-1.42-0.27-2.85-0.27-4.3-0.21c-0.16-0.05-0.16-0.14,0.2-0.35c-0.48,0.18-0.96,0.31-1.45,0.41
		c-2.52,0.14-5.07,0.29-7.58-0.62c0.59,0.34,0.2,0.38-0.25,0.4c0.18,0.05,0.14,0.2,0.1,0.36c-0.33-0.01-0.66-0.02-0.99-0.02
		l-0.88-0.31c-0.29,0.6-1.61,0.19-2.02,0.55c-0.02,0-0.04,0.01-0.05,0.01c-0.29-0.06-0.12-0.29-0.01-0.44
		c-0.8,0.61-0.75-0.33-1.18-0.43l-1.16,0.88c-0.47-0.27-0.1-0.54-0.13-0.72c-2.19-0.2-4.33,0.65-6.09,0.1
		c-0.57,0.32,0.13,0.72-0.62,0.83c1.02-0.92-2.17-0.46-1.52-1.11c-0.73,0.98-2.68,0.18-2.37,1.55c-0.89,0.07-0.73-0.59-0.48-0.71
		c-1.03,0.04-1.87,0.04-2.71-0.4c-0.57,0.31-4.72-0.4-5.65,0.62c0.63-0.66-0.05-0.35-0.65-0.64l0.55-0.58l-1.36,0.05
		c-0.28-0.06-0.36-0.04-0.35,0.02c-0.23,0.03,0.05,0.34-0.54,0.48c-0.93,0.03-0.97-0.3-1.48-0.61l0.14-0.09l-0.63-0.06
		c-0.46,0.01,1.63,0.61,0.12,0.89c-0.02-0.16-0.9-0.95-1.31-0.53c0.77-0.02,0.67,0.39,0.39,0.56l-1.08,0.03l0.36-0.74
		c-3.1,0.01-6.33,0.5-9.64,0.41c0.04,0.65-2.34,0.01-2.05,0.97l0.13-0.09c0.81,0.1-0.24,0.76-0.9,0.64c0.69-0.3-1.23-0.98,0.45-1.1
		l-1.3-0.47c-0.71-1.85-3.47,0.11-5.43-0.5c0.14,0.07,0.17,0.17,0.19,0.23c-1.75-0.61-3.93,0.45-4.33,0.15l-0.16,0.5
		c-1.49-0.79-1.67-0.86-3.45-0.57c0.02,0.08,0.23,0.23-0.06,0.33c-0.43-0.38-0.86-0.76-2.08-0.67l0.05,0.16l-1.91-0.11
		c0,1.56-3.27-0.99-3.85,0.69c-0.37-0.46-1.77-0.62-2.39-0.84c-0.01,0.07-0.04,0.14-0.15,0.21c-0.73-0.85-2.12,0.24-2.93,0.13
		c-0.53-0.21-0.3-0.47-0.06-0.73c-1.05,0.65-2.89-0.77-3.27-0.5c-0.77,0.06-0.29,0.59-0.5,0.94c-1.14-0.16,0.2-1.41-1.33-0.81
		c0.18,0.07,0.51,0.13,0.38,0.22c-0.59,0.12-1.65,1.91-2.23,1.54l0.39-0.28c-1.06-0.42-2.53,1.24-2.7,0.19l0.1-0.49
		c-1.84,0.63-0.78-0.2-2.65,0.35l0.02,0.08c-0.81-0.1-1.26,0.5-1.65-0.29l0.28-0.1c-1.01-0.07-1.1-0.02-2.13,0.01
		c-0.12-0.08-0.62-0.2-0.76-0.04c-0.04-0.65-2.38-0.33-2.84-0.29c0.81,0.11,0.43,0.38,0.19,0.64c-0.33-0.37-0.59-0.5-0.94-0.43
		c-0.17-0.51-0.52-0.91-1.41-0.93c0.21,0.12,0.52,0.18,0.4,0.35c-0.13,0.17-0.44-0.01-0.54-0.07c-0.13,0.17,0.3,0.29,0.16,0.58
		c-0.9-0.76-1.53-0.03-2.82-0.28c0.41,0.24,0.07,0.4-0.08,0.69c-0.12-0.92-1.74,0.83-1.27-0.37c-2.5,0.76-6.37,0.16-7.33,0.94
		c-0.26,0.34-0.97-0.19-1.4-0.2l0.07,0.4c-1.24-0.71-0.96-0.26-2.41-0.97c0.61,0.47,0.36,0.7-0.23,1.09l-1-0.82l-0.18,0.63
		c-0.41-0.24-0.86-0.13-1.31-0.03c0.22,0,0.1,0.06,0.09,0.17c-0.23-0.86-2-0.73-2.28-1.14c-0.42,0.85-1.19-0.19-1.49,0.6
		c-0.15-0.12-0.34-0.21-0.54-0.29c0.2-0.37,0.27-0.79-0.12-0.6c-0.03-0.01-0.06-0.01-0.09-0.01l-0.16,0.49
		c-0.41-0.11-0.82-0.16-1.1-0.16c0.12-0.04,0.26-0.14,0.41-0.25c-0.17,0.08-0.33,0.17-0.49,0.25c-0.06,0-0.11,0-0.15,0.01
		c0.03,0.01,0.06,0.02,0.09,0.02c-0.25,0.12-0.5,0.18-0.86,0.02c-1.4,0.78-3.18-0.98-4.72,0.08c0.23-0.11,0.56-0.16,0.66,0.01
		c-1.31-0.03-2.6,0.7-3.43,0.34l0.05-0.46c-0.96-0.19-1.71-0.33-2.48-0.28l-0.05-0.52c-1.12,0.21-3.55-0.59-4.22,0.49
		c-0.28-0.41-1.55,0.15-2.2,0.02l-0.15,0.4c-0.83,0.14-1.35,0.01-1.85-0.1c0.08-0.04,0.15-0.06,0.23-0.11
		c-0.43-0.3-0.87-0.18-1.26,0.02c0.39-0.03,0.71,0.02,1.03,0.09c-1.67,0.86-3.26,0.06-4.73,0.15l-0.01,0.11l-1.5-0.26
		c0.4,0.35-0.3-0.24-0.75-0.14c-0.48-0.18-1.25-0.07-1.81,0.2l-0.96,0.04c1.07,0.25-0.06,0.57-0.11,1.03l-0.62-0.36
		c-0.24,0.22,0.4,0.35-0.05,0.46c-0.41-0.24-1.62-0.2-2.01-0.67c0.06-0.12,0.2-0.23,0.38-0.32c0.05,0.03,0.05,0.02,0.02-0.01
		c0.02-0.01,0.03-0.02,0.04-0.03c-0.02,0.01-0.03,0.01-0.05,0.02c-0.05-0.04-0.13-0.12-0.17-0.18c-0.76,0.11-0.48-0.08-0.46-0.29
		c-0.85,0.73-1.34,0.25-1.98,1.1c0.53-0.58-0.3-0.45-0.92-0.46l1.19,0.98L6.48,82.1c0.48,0.81,1.6-0.33,2.03-0.06
		c-0.29-0.19-0.93,0.01-0.95,0.2l0.18-0.63c1.02-0.27,1.84,0.21,2.57,0.51c-0.68,0.22,0.84,0.36,0.35,0.81l-0.54-0.07
		c-0.24,0.22,0.28,0.41,0.59,0.59c1.7-0.48,4.84-0.14,5.44-0.64c-0.35,0.16-0.99,0.04-1.3-0.14l0.8-0.27
		c-0.65-0.01-1.15,0.55-2.12,0.36c0.15-0.4-0.55-0.93,0.16-1.49c1.83-0.65,1.53,1.01,3.75,0.82c0.21,0.12-0.48-0.64,0.71-0.45
		c1.49,0.37,2.6,1.26,2.61,2.12c-0.63-0.24-1.89-0.73-2.07-0.1c0.63,0.24,1.71,0.38,1.77,0.78c0.63-0.73-1.18-0.2-0.35-0.81
		c0.44,0.01,0.63,0.24,0.84,0.36c-0.3-0.29,0.38-0.51,0.51-0.68c1.42-0.03,2.23-0.36,3.75-0.45c0.08-0.11,0.24-0.34,0.19-0.52
		c0.75,0.19,1.83,1.25,1.56,1.7c0.87,0.02,0.91-0.33,1.66-0.14c-1.17,0.67,0.23-0.11,0.37,0.58c0.76,0.07,0.26-0.34,0.6-0.51
		c0.13,0.07,0.44,0.3,0.46,0.49c0.46-0.54-0.93-1.36-0.4-1.98c0.37-0.39,1.99-1.12,2.1-1.17c0.37,0.58,0.32,3.01-0.21,3.8
		c0.07,0.41,0.71-0.45,1.04-0.49c0.95-0.67,1.48,0.49,2.28,0.22l-0.62-0.36c0.13-0.17,1.31,0.03,1.51,0.26
		c0.03-0.23-0.64-1.17-0.27-1.45c1.44-0.15,2.83,1.1,2.76,1.78l-2.22-0.67c-0.07,0.57,1.58,0.55,1.5,1.24l2.03-0.24
		c-0.26-0.01-1.05-0.16-0.74-0.48c0.87,0.02,0.45-0.11,1.03-0.38c-1.02-0.71-2.89-2.54-3.56-3.41l1.06,0.37l0.26-0.34
		c1.38,0.43,2.66,2.65,3.03,3.23c0.78-0.16,0.48-1.38,0.29-1.61c1.55-0.09,1.56,1.7,3.12,1.5l-0.58,0.28
		c0.37,0.11,1.7-0.16,1.56,0.07c0.3-0.33,0.57-1.1,0.22-1.3l1.4,1.13c-0.21-0.12-0.09-1.1-0.18-1.27c0.55-0.05,0.97,1.12,0.62,1.28
		c1.07-0.73,0.81-0.33,1.67-1.18c0.32,0.06-0.01,1.04-0.24,1.15c0.73,0.25,1.15,0.12,1.49,0.01c-1.2-0.4-0.37-2.19-0.61-2.93
		l2.63,2.88c-0.09-0.17-0.31-1.11-0.3-1.22c0.23,0.86,3.18,0.93,4.62,0.78l-0.22,0c-0.3-0.29,0.94-0.56,1.45-0.26
		c-0.09-0.17-0.21-0.12-0.42-0.12c0.95-0.67,1.28,1.3,2.24,0.51c-0.89,0.1-1.07-0.25-1.03-0.59c0.74,0.3,2.42-0.07,2.09,0.96
		c0.46-0.22,0.89-0.1,0.84-0.62l1.8,0.58c-0.14-0.1-0.26-0.4,0.27-0.48c-1,0.15-1.99-0.79-2.51-0.11c-0.04-0.63,0.33-0.98-0.16-1.5
		c1.94,0.27,3.03,1.33,4.27,2.04l1.7-0.48l0.08,0.29l0.28-0.73c0.22,0.16,0.36,0.31,0.4,0.24c0.04-0.07-0.02-0.16-0.1-0.27
		c0.18,0.03,0.34,0.1,0.43,0.17c0.02-0.12-0.01-0.25-0.05-0.37l0.89-0.37c1.16,0.73,0.96,0.59,2.38,1.14
		c0.08-0.25-0.3-0.47-0.04-0.65c1.03,0.83,2.54-0.92,2.76-0.2c0.84,0.19,0.34,0.63,0.87,0.84c-0.02-0.08-0.07-0.24,0.08-0.25
		l0.63,0.53c0.26-0.18-0.58-0.37,0.14-0.58c1.22,0.4,1.93,0.68,2.95,0.44c1.45,0.14-0.63,1.03,0.6,0.94
		c0.18-0.42,0.35-0.93,1.11-0.98c0.4,0.3,0.34,0.63,1.03,0.83l-0.04-0.65c0.63,0.04,1.14,0.16,1.15-0.33
		c0.52,0.29,0.88,0.24,1.15,0.14c0.96,0.36-0.72,1.32-0.95,1.57c0.95-0.48,1.6-0.19,2.15-0.97l-0.84-0.19
		c1.79-0.79,1.69,0.94,2.53-0.43c-0.61,0.04-1.35-0.31-0.98-0.67l0.88,0.35c0.11-0.17-0.51-0.13-0.1-0.32
		c0.25,0.15,0.77,0.49,0.99,0.71l-0.01-0.04l1.6,0.13c-0.3,0.02-0.38-0.22-0.07-0.24l1.05,0.36c-0.32-0.17,0.01-0.37,0.48-0.47
		c1.35-0.18,1.07,1.48,2.13,0.83c-0.15,0.01-0.18-0.07-0.33-0.06l0.54-0.29c0.1,1.39,3.18,0.18,3.28,1.57
		c0.77-0.55,0.06-0.33-0.93-1l0.82-0.39c-0.33-0.06-0.61,0.05-0.97-0.09c1.08-0.57,2.08,0.18,2.66,0.54c0.41-0.2-0.31-1.04,0.85-0.8
		c1.65,0.29-0.32,1.01,0.67,1.18l0.72-0.71c1.26,0.56,2.21,0.08,3.28,0.01c0.24,0.06,0.36,0.14,0.42,0.21
		c1.14-0.3,2.38,0.73,3.24,0.5c-0.2-0.15,0.49-0.45,0.6-0.62l1.54,0.46c-0.68-0.2-0.65-0.61-0.77-1.01
		c0.48,0.05,0.71,0.28,1.04,0.33c-0.2-0.15-0.4-0.3-0.14-0.48l1.62,0.7c-0.1,0.07-0.28,0.09-0.44,0.11
		c0.41,0.01,1.28,0.28,1.87-0.05c-0.05-0.16-0.25-0.31-0.3-0.47c-0.49,0.45-0.77,0.06-1.02-0.25c1.12,0.08,0.28-0.1,0.82-0.39
		c0.79,0.02,1.11,0.58,0.9,0.92c0.89-0.15,1.18-0.25,2.09,0.18l-0.17-0.56l0.84,0.19l-0.67-0.69c1.61-0.36,0.29,0.96,2.07,0.67
		l0.01-0.49c0.68,0.2,0.91,1.03,1.45,0.45c0.66,0.31-1.15,0.68,0.42,0.8c0.28-0.25,0.87-0.43,1.32-0.52
		c0.5,0.23-0.39,0.58-0.71,0.51c2.36,0.26,1.48-1.67,3.59-0.99c-0.73,0.35,0.6,0.96-1.12,0.92c0.82,0.3,1.61-0.69,2.46-0.15
		l-0.55-0.63c0.31-0.01,0.65,0.22,0.82,0.3l-0.07-0.49c1.05,0.86,1.96-0.38,2.58,0.74c-0.43-0.88,0.78,0.06,1.21-0.28
		c-0.86-0.63-2.48-0.01-2.59-0.82c0.41-0.24,0.76,0.16,1.15-0.07c-0.27-0.12-0.67-0.34-0.77-0.51c1.34-0.44,2.09,0.51,2.89,0.73
		l-1.42-0.2c0.11,0.81,0.64,0.15,1.04,0.78c0.72-0.43,1.27,0.21,1.85-0.05c-0.15,0-0.16-0.08-0.32-0.07c1.55,0.04,2-1.27,2.62-1.29
		c0.61-0.1,1.75,0.36,1.34,0.69c0.5,0.23-2.06-0.27-1.18,0.79c0.9-1.2,1.82,0.47,3.76-0.33c-0.84-0.44,0.5-0.68-0.25-1.01
		c0.92,0.11,0.95,0.29,1.36,0.64l0.28-0.38c1.2,0.86,0.28,0.75,2.1,1.23c-0.61-0.3,0.74-0.54,0.27-0.81c0.51-0.02,1,0.1,1.37,0.33
		l-0.07-0.06c1.84,0.22,1.52-0.46,3.19-0.02l-0.17,0.23c2.2,0.64,4.98,0.28,7.26,0.58l-0.8,0.18c0.24-0.11,1.53,0.38,2.25,0.03
		c-0.14-0.02-0.39-0.13-0.52-0.1c0.02-0.26,0.3-0.63,0.85-0.69l0.21,0.39l0.22-0.3c0.83,0-0.25,0.56,0.59,0.56
		c0.5-1.11,3.6-0.11,4.32-1.08c0.04,0.06,0.07,0.12,0.08,0.16c-0.06,0.07-0.17,0.15-0.17,0.24c-0.41,0.11-1.3-0.08-0.87,0.43
		c0.26-0.12,0.37-0.27,0.91-0.33l-0.19,0.48c2.19-0.21,3.21-0.54,4.91-0.54c0.7,0.11,1.47,0.23,2.5,0.33l-0.19-0.48
		c0.05,0,0.09,0.01,0.13,0.02c0.22,0.15,0.44,0.22,0.66,0.24c0.04,0.02,0.08,0.05,0.13,0.07c0.02-0.02,0.03-0.04,0.04-0.06
		c0.37-0.01,0.73-0.15,1.08-0.29c0.99,0.01,1.98,0.01,2.24,0.59c0.84,0-0.25-0.56,0.59-0.56l0.22,0.3l0.21-0.39
		c0.55,0.06,0.83,0.43,0.85,0.69c-0.13-0.03-0.38,0.08-0.52,0.1c0.71,0.35,2-0.14,2.25-0.03l-0.8-0.18
		c2.28-0.31,5.06,0.06,7.26-0.58l-0.17-0.23c0.27-0.07,0.48-0.11,0.66-0.13c0.31,0.21,0.1,0.53,0.52,0.69
		c-0.03-0.08-0.08-0.24,0.08-0.25l0.63,0.52c0.26-0.19-0.58-0.36,0.13-0.59c1.22,0.4,1.93,0.67,2.95,0.42
		c1.45,0.13-0.62,1.04,0.6,0.94c0.18-0.43,0.34-0.93,1.1-0.99c0.4,0.3,0.35,0.63,1.04,0.82l-0.04-0.65
		c0.63,0.03,1.14,0.15,1.15-0.34c0.52,0.28,0.88,0.23,1.15,0.13c0.96,0.35-0.71,1.32-0.93,1.58c0.95-0.49,1.6-0.2,2.14-0.98
		l-0.84-0.18c1.79-0.8,1.7,0.93,2.52-0.45c-0.29,0.02-0.61-0.05-0.82-0.16c0.13-0.16,0.17-0.28,0.15-0.38l0.57,0.22
		c0.1-0.17-0.51-0.12-0.1-0.32c0.25,0.14,0.77,0.48,1,0.7l-0.01-0.04l1.6,0.12c-0.3,0.03-0.38-0.22-0.07-0.24l1.05,0.35
		c-0.32-0.17,0.01-0.37,0.48-0.47c0.06-0.01,0.11-0.01,0.16-0.01c-0.09,0.04-0.18,0.07-0.25,0.13c0.18,0.14,0.49,0.06,0.77-0.02
		c0.62,0.33,0.63,1.23,1.46,0.72c-0.15,0.01-0.18-0.07-0.33-0.06l0.54-0.29c0.11,1.39,3.18,0.15,3.3,1.54
		c0.77-0.56,0.05-0.33-0.93-0.99l0.82-0.39c-0.33-0.05-0.61,0.05-0.97-0.09c0.12-0.07,0.25-0.11,0.37-0.15
		c0.48,0.14,0.95,0.41,1.43,0.23c-0.81,0.02-0.94-0.11-0.93-0.29c0.73,0.02,1.38,0.47,1.8,0.73c0.22-0.11,0.11-0.41,0.15-0.62
		c0.28,0.19,0.69,0.32,1.38,0.26c-0.08,0.3-0.63,0.63,0,0.74l0.72-0.71c1.27,0.55,2.21,0.07,3.28-0.02
		c0.24,0.06,0.36,0.13,0.42,0.21c1.14-0.31,2.38,0.71,3.24,0.48c-0.2-0.15,0.49-0.45,0.59-0.62l1.55,0.45
		c-0.68-0.19-0.65-0.6-0.78-1.01c0.48,0.04,0.71,0.27,1.04,0.33c-0.2-0.15-0.4-0.3-0.15-0.48l1.62,0.69
		c-0.1,0.07-0.28,0.1-0.44,0.11c0.41,0.01,1.28,0.27,1.86-0.06c-0.05-0.16-0.25-0.31-0.3-0.47c-0.49,0.45-0.76,0.06-1.02-0.25
		c1.12,0.08,0.28-0.1,0.82-0.39c0.79,0.02,1.11,0.57,0.91,0.91c0.89-0.15,1.18-0.26,2.09,0.16l-0.17-0.56l0.84,0.18l-0.68-0.69
		c1.61-0.37,0.29,0.96,2.08,0.65l0.01-0.49c0.69,0.19,0.92,1.02,1.46,0.44c0.67,0.3-1.14,0.69,0.43,0.8
		c0.28-0.25,0.87-0.44,1.32-0.53c0.5,0.23-0.38,0.58-0.7,0.51c2.36,0.24,1.47-1.68,3.58-1.02c-0.72,0.35,0.6,0.95-1.11,0.93
		c0.82,0.3,1.61-0.71,2.46-0.17l-0.55-0.63c0.31-0.01,0.65,0.22,0.82,0.3l-0.07-0.48c1.05,0.86,1.96-0.4,2.58,0.72
		c-0.43-0.88,0.79,0.05,1.2-0.28c-0.87-0.62-2.48,0.01-2.6-0.8c0.4-0.24,0.76,0.15,1.15-0.08c-0.27-0.12-0.67-0.34-0.77-0.5
		c1.33-0.45,2.09,0.5,2.9,0.71l-1.43-0.19c0.11,0.81,0.64,0.14,1.04,0.78c0.71-0.43,1.27,0.2,1.85-0.06c-0.15,0-0.16-0.08-0.32-0.07
		c1.55,0.03,1.99-1.29,2.61-1.31c0.61-0.1,1.76,0.34,1.34,0.68c0.5,0.23-2.06-0.25-1.18,0.8c0.89-1.21,1.83,0.46,3.76-0.36
		c-0.85-0.43,0.5-0.68-0.26-1.01c0.92,0.1,0.96,0.28,1.37,0.63l0.28-0.38c1.2,0.85,0.28,0.75,2.11,1.21
		c-0.61-0.3,0.73-0.54,0.27-0.81c0.51-0.02,1,0.09,1.37,0.32l-0.07-0.05c1.85,0.2,1.51-0.47,3.19-0.04l-0.17,0.23
		c2.2,0.62,4.98,0.24,7.26,0.53l-0.8,0.18c0.24-0.12,1.54,0.37,2.25,0.02c-0.14-0.02-0.39-0.13-0.52-0.1
		c0.02-0.26,0.3-0.63,0.84-0.7l0.21,0.39l0.22-0.3c0.83,0-0.25,0.56,0.59,0.56c0.49-1.12,3.59-0.13,4.32-1.11
		c0.57,0.81-1.58,0.11-0.96,0.85c0.25-0.12,0.37-0.27,0.91-0.33l-0.19,0.48c2.53-0.26,3.49-0.67,5.74-0.56l-0.09-0.1
		c0.8-0.18,1.23-0.1,1.59,0.33c0.17-0.23-0.41-0.34-0.1-0.54c1.35,1.19,2.69-0.7,3.56-0.12c0,0.02-0.01,0.05,0,0.07
		c0.01-0.01,0.04-0.02,0.05-0.03c0.02,0.02,0.05,0.03,0.07,0.06c0-0.03,0-0.06,0-0.1c0.09-0.04,0.19-0.08,0.3-0.1
		c-0.09,0.11-0.14,0.2-0.1,0.27c0.04,0.07,0.18-0.07,0.4-0.24l0.28,0.73l0.08-0.29l1.7,0.48c1.24-0.71,2.32-1.77,4.27-2.04
		c-0.49,0.53-0.12,0.87-0.16,1.5c-0.51-0.68-1.51,0.26-2.51,0.11c0.52,0.08,0.4,0.38,0.27,0.48l1.8-0.58
		c-0.05,0.52,0.37,0.39,0.84,0.62c-0.33-1.03,1.35-0.66,2.09-0.96c0.04,0.34-0.14,0.69-1.03,0.59c0.97,0.79,1.29-1.18,2.24-0.51
		c-0.22,0-0.33-0.05-0.42,0.12c0.51-0.3,1.75-0.03,1.45,0.26l-0.22,0c1.44,0.14,4.39,0.08,4.62-0.78c0.01,0.11-0.21,1.04-0.3,1.22
		l2.63-2.88c-0.24,0.74,0.59,2.53-0.61,2.93c0.34,0.11,0.76,0.24,1.49-0.01c-0.23-0.11-0.56-1.09-0.24-1.15
		c0.86,0.85,0.6,0.45,1.67,1.18c-0.35-0.17,0.07-1.33,0.62-1.28c-0.09,0.17,0.02,1.16-0.18,1.27l1.4-1.13
		c-0.35,0.2-0.08,0.97,0.22,1.3c-0.14-0.23,1.19,0.04,1.56-0.07l-0.58-0.28c1.56,0.2,1.57-1.59,3.12-1.5
		c-0.19,0.23-0.49,1.45,0.29,1.61c0.37-0.58,1.65-2.8,3.03-3.23l0.26,0.34l1.06-0.37c-0.67,0.87-2.55,2.71-3.56,3.41
		c0.58,0.28,0.15,0.4,1.03,0.38c0.3,0.32-0.49,0.47-0.74,0.48l2.03,0.24c-0.08-0.69,1.57-0.66,1.5-1.24l-2.22,0.67
		c-0.08-0.69,1.32-1.93,2.76-1.78c0.36,0.28-0.3,1.22-0.27,1.45c0.19-0.23,1.38-0.43,1.51-0.26l-0.62,0.36
		c0.8,0.27,1.33-0.89,2.28-0.22c0.33,0.05,0.97,0.9,1.04,0.49c-0.53-0.79-0.58-3.22-0.21-3.8c0.12,0.05,1.73,0.78,2.1,1.17
		c0.54,0.62-0.85,1.45-0.4,1.98c0.02-0.19,0.33-0.41,0.46-0.49c0.35,0.17-0.16,0.58,0.6,0.51c0.14-0.69,1.54,0.08,0.37-0.58
		c0.75-0.19,0.79,0.16,1.66,0.14c-0.27-0.45,0.82-1.52,1.56-1.7c-0.05,0.18,0.11,0.41,0.19,0.52c1.52,0.09,2.33,0.42,3.75,0.45
		c0.13,0.17,0.81,0.39,0.51,0.68c0.21-0.12,0.4-0.35,0.84-0.36c0.83,0.62-0.98,0.08-0.35,0.81c0.06-0.4,1.14-0.54,1.77-0.78
		c-0.18-0.63-1.44-0.14-2.07,0.1c0.01-0.86,1.12-1.75,2.61-2.12c1.18-0.19,0.5,0.57,0.71,0.45c2.21,0.19,1.92-1.47,3.75-0.82
		c0.72,0.56,0.01,1.09,0.16,1.49c-0.97,0.19-1.47-0.37-2.12-0.36l0.8,0.27c-0.31,0.18-0.95,0.31-1.3,0.14
		c0.6,0.5,3.74,0.16,5.44,0.64c0.31-0.18,0.84-0.36,0.59-0.59l-0.54,0.07c-0.49-0.45,1.03-0.6,0.35-0.81
		c0.73-0.3,1.56-0.77,2.57-0.51l0.18,0.63c-0.02-0.18-0.66-0.38-0.95-0.2c0.43-0.27,1.55,0.87,2.03,0.06l-0.71-0.45L337.14,80.92z
		 M13.66,80.63c-0.01-0.01-0.02-0.02-0.03-0.02C14,80.51,14.18,80.43,13.66,80.63z M67.21,81.13c-0.07,0.05-0.16,0.12-0.26,0.2
		c-0.05-0.11-0.1-0.21-0.15-0.32L67.21,81.13z M66.41,80.9c-0.03,0.02-0.05,0.02-0.08,0.04c0-0.02-0.01-0.04-0.01-0.06L66.41,80.9z
		 M65.52,83.18c0.28-0.13,0.53-0.15,0.75-0.12C65.97,83.25,65.7,83.34,65.52,83.18z M67.68,83.14c-0.1-0.27-0.3-0.54-0.52-0.8
		c-0.15,0.14-0.31,0.28-0.46,0.41c-0.34-0.36-0.59-0.73-0.13-0.98c0.07,0.05,0.15,0.1,0.24,0.15c-0.22-0.27-0.36-0.49-0.2-0.6
		l0.27,0.07c-0.08,0.07-0.16,0.14-0.25,0.22c0.02,0.04,0.04,0.09,0.06,0.13c0.23,0.14,0.45,0.28,0.64,0.43
		c-0.01,0.01-0.03,0.02-0.04,0.04c0.04,0.02,0.08,0.05,0.13,0.07c-0.01-0.02-0.02-0.05-0.04-0.07
		C67.8,82.52,68.01,82.85,67.68,83.14z M83.36,83.99c0.41-0.16,0.62-0.43,0.88,0.14C84.07,84.42,83.6,84.09,83.36,83.99z
		 M129.61,80.44l0.21-0.13C129.96,80.46,130.09,80.59,129.61,80.44z M189.72,84.41c0.4-0.16,0.61-0.43,0.88,0.14
		C190.43,84.83,189.95,84.51,189.72,84.41z M191.57,84.06c0.02,0.02,0.04,0.05,0.06,0.07C191.6,84.11,191.58,84.08,191.57,84.06z
		 M204.47,84.4c0.01,0,0.02,0,0.04,0.01c0.61,0.1,0.73,0.27,0.68,0.44C204.86,84.87,204.23,84.61,204.47,84.4z M235.94,80.53
		l0.21-0.13C236.29,80.54,236.42,80.67,235.94,80.53z M276.44,83c-0.13-0.11-0.26-0.23-0.38-0.34c0.16-0.2,0.32-0.4,0.44-0.59
		c0.02-0.01,0.05-0.03,0.07-0.04C277.03,82.27,276.78,82.64,276.44,83z M276.86,83.31c0.22-0.04,0.48-0.01,0.75,0.12
		C277.44,83.59,277.17,83.5,276.86,83.31z M329.48,80.88c-0.52-0.2-0.34-0.12,0.03-0.02C329.5,80.86,329.49,80.87,329.48,80.88z"/>
	<path class="st2" d="M275.49,84.07c-0.07-0.08-0.08-0.18-0.1-0.27C275.3,83.88,275.3,83.97,275.49,84.07z"/>
	<path class="st2" d="M313.5,84.98c-0.22-0.07-0.35-0.17-0.43-0.26C313.06,84.84,313.16,84.94,313.5,84.98z"/>
	<path class="st2" d="M336.44,80.35l-0.71,0.12c0.34-0.02,0.46,0.09,0.63,0.17C336.35,80.52,336.22,80.35,336.44,80.35z"/>
	<path class="st2" d="M338.04,82.21c-0.03,0-0.06,0-0.09,0c0.16-0.58-0.37-0.39-0.9-0.21C337.1,82.41,337.55,82.28,338.04,82.21z"/>
	<path class="st2" d="M332,80.84c0.23,0.11,0.16-0.53,0.29-0.36C332.56,79.96,330.71,81.09,332,80.84z"/>
	<polygon class="st2" points="336.98,83.26 337.43,83.37 337.26,82.85 	"/>
	<path class="st2" d="M333.54,82.93l0.78,0.15c-0.01-0.09,0.09-0.13,0.21-0.17C334.06,82.88,333.53,82.77,333.54,82.93z"/>
	<path class="st2" d="M335.18,82.84c-0.14,0-0.43,0.02-0.64,0.07C334.79,82.92,335.04,82.92,335.18,82.84z"/>
	<polygon class="st2" points="335.56,83.34 336.35,83.5 336.12,83.39 	"/>
	<path class="st2" d="M325.08,82.69l-0.86,0.13c-0.09,0.17,0.14,0.28,0.46,0.22C324.89,82.92,325.21,82.86,325.08,82.69z"/>
	<path class="st2" d="M327.28,83.74l-0.04,0.63l0.41-0.24C327.42,84.02,327.41,83.91,327.28,83.74z"/>
	<path class="st2" d="M325.14,84.24c-0.09,0.17-1.26,0.48-0.17,0.46C325.06,84.53,325.93,84.4,325.14,84.24z"/>
	<polygon class="st2" points="312.21,83.22 312.43,83.22 312.42,82.18 	"/>
	<path class="st2" d="M301.41,84.73c-0.62,0.25-0.94,0.1-0.67,0.79c1.01,0.27,0.26-0.64,1.17-0.31
		C302.16,84.97,301.17,84.94,301.41,84.73z"/>
	<path class="st2" d="M301.41,84.73c0.1-0.04,0.2-0.09,0.32-0.15C301.55,84.64,301.47,84.69,301.41,84.73z"/>
</g>
</svg>
