<svg xmlns="http://www.w3.org/2000/svg" viewBox="0 0 214.84 87.82"><defs><style>.cls-1{fill:#fff;}</style></defs><g id="Layer_2" data-name="Layer 2"><g id="Layer_1-2" data-name="Layer 1"><path class="cls-1" d="M29.58,16.2,33,11.72a4.34,4.34,0,0,0,.85-1.51c0-.61.23-1.14-.36-1.57-1.14-.87-3.49-.27-4.82-.16l-5.43.44a1.67,1.67,0,0,1-.8-.07,1.65,1.65,0,0,1-.66-.79L20.64,5.9C20,4.61,19.28,3.32,18.5,2.08,17.94,1.21,17.59,0,16.32,0c-1.75,0-2.68,2.93-3.27,4.21a48.66,48.66,0,0,0-2.44,6.52c-.51,1.75-3,1.59-4.46,2.15a18,18,0,0,1-2.28.78,5.06,5.06,0,0,0-1,.32A9.65,9.65,0,0,0,.2,16.11c-.62,1,.31,1.8,1.14,2.46,2,1.63,4.56,2.28,6.73,3.66,1.32.8,2.2,1.41,2.28,3a37.07,37.07,0,0,0,.32,4.43c.25,1.47.16,2.94,1,4.29a1.64,1.64,0,0,0,.83.77c.63.19,1.21-.35,1.63-.84A19,19,0,0,0,16.35,31a24.18,24.18,0,0,1,1.49-2.28,13,13,0,0,1,1.27-2,2.48,2.48,0,0,1,2.79-.43,4.2,4.2,0,0,0,1.2.43,5.47,5.47,0,0,1,1.52.78,12,12,0,0,0,1.61.69,27.31,27.31,0,0,0,3.17,1,19.83,19.83,0,0,0,2.28.53.81.81,0,0,0,.55-.08.74.74,0,0,0,.28-.43,2.37,2.37,0,0,0,0-1.68L30.22,21.7l-1.14-2.86a1.87,1.87,0,0,1,.27-2.27A1.56,1.56,0,0,1,29.58,16.2Z"/><path class="cls-1" d="M12.89,80.2v.12A2.71,2.71,0,0,0,13,81.55a1,1,0,0,1,0,1,2.83,2.83,0,0,1-.69.77l-.44.38a.26.26,0,0,0-.19.08c0,.08-.14.11-.22.17a5.06,5.06,0,0,0-.9.89,1.94,1.94,0,0,0-.52,1.06c0,.72.68.94,1.26,1a6.44,6.44,0,0,0,2.51-.11c.59-.16,1.3-.29,1.52-1a1.25,1.25,0,0,1,.18-.45c.16-.18.45-.17.69-.22a2.29,2.29,0,0,0,.95-.47.64.64,0,0,0,.24-.22,1.37,1.37,0,0,0,0-.75l-.1-.92c0-.12,0-.25-.07-.37s-.11-.25-.14-.39a.65.65,0,0,1,0-.39c.25.08.48-.17.56-.39a2.46,2.46,0,0,0,.06-.66V78.49a1.89,1.89,0,0,1,.08-.53c0-.11.1-.23.14-.35a1.94,1.94,0,0,0,0-.83,2.35,2.35,0,0,1,0-.53,1.88,1.88,0,0,1,.12-.45,6.9,6.9,0,0,0,.09-.78,4.13,4.13,0,0,1,.36-1.41,3,3,0,0,0,.23-1.14.94.94,0,0,1,.21-.55l.18-.2a.7.7,0,0,0,.11-.37,4.35,4.35,0,0,0,0-1.14v-1A10.75,10.75,0,0,0,19,67.83a1.28,1.28,0,0,0,.82-.29A2.84,2.84,0,0,0,20,68.93a2,2,0,0,1,.14.72,3.55,3.55,0,0,0-.09.47,1.09,1.09,0,0,0,.11.39c.19.55.06,1.21.39,1.69a3.12,3.12,0,0,1,.56,1,9.2,9.2,0,0,1,.11,1.39,1.51,1.51,0,0,0,.31,1,1.6,1.6,0,0,1,.26.26c.16.24,0,.57.06.85a13.33,13.33,0,0,0,.43,1.87,17.71,17.71,0,0,1,.24,1.8,5.61,5.61,0,0,1,0,.58V82a.54.54,0,0,0,0,.31c.2.44.68.07.92.37s-.1.56-.08.83a10.71,10.71,0,0,0,.22,1.38,7.1,7.1,0,0,1-.11,1.22,6.76,6.76,0,0,0,0,.9,1,1,0,0,0,.06.23.68.68,0,0,0,.27.26,2.26,2.26,0,0,0,.68.17c.71.08,1.44.08,2.16.09a3.57,3.57,0,0,0,.8,0c.29-.07.58-.22.87-.31.83-.23.78-1.14.33-1.82-.12-.18-.27-.33-.4-.5A3.07,3.07,0,0,1,27.66,84a4.21,4.21,0,0,1-.12-.71,1.74,1.74,0,0,0,.06-.64.49.49,0,0,1-.07-.16c0-.06.15-.16.25-.22a.52.52,0,0,0,.23-.5,2.65,2.65,0,0,0-.15-.57,3.19,3.19,0,0,1-.05-1.81,1.32,1.32,0,0,0,0-.56v-.65a3.9,3.9,0,0,1-.11-1.23c.06-.29.22-.6.09-.86l-.11-.2a.76.76,0,0,1,0-.3,11.93,11.93,0,0,1,0-1.89,12.73,12.73,0,0,0-.06-2.14,3.38,3.38,0,0,0,0-.45,1.65,1.65,0,0,0-.11-.36,3.42,3.42,0,0,1-.09-.63,11.46,11.46,0,0,1-.13-1.65,9.08,9.08,0,0,0,0-1.38,5.34,5.34,0,0,1,0-1.06V65a7.23,7.23,0,0,0,.09-1.85,12.12,12.12,0,0,1-.08-1.62,6.64,6.64,0,0,0-.16-.87,6.56,6.56,0,0,0-.37-1,5,5,0,0,0-.39-.72c-.28-.41-.8-1.61-.19-1.94a2.26,2.26,0,0,1,.73-.15.47.47,0,0,0,.45-.5.77.77,0,0,0-.1-.25,2.33,2.33,0,0,1-.08-.36c-.09-.8-.18-1.61-.34-2.41a7.11,7.11,0,0,1,0-2.52,1.06,1.06,0,0,1,.08-.49,5.45,5.45,0,0,1,.26-1.13c.35-1,1.56-1.14,1.92-2.1A5.85,5.85,0,0,0,29,45.59c0-.09.12-.17.17-.23l.23-.3a4.83,4.83,0,0,0,.37-.62c.1-.19.23-.38.32-.58.44-1,.88-2,1.31-3,.21-.48.44-1,.6-1.46s.3-1,.44-1.56.22-1,.33-1.5a9.79,9.79,0,0,0,.18-1.14,13,13,0,0,0,0-2,3.72,3.72,0,0,1,.22-1.84c.12-.26.34-.48.46-.74s.18-.45.28-.67a5.81,5.81,0,0,0,.45-1.68.57.57,0,0,0,0-.26,1,1,0,0,0-.11-.23c-.17-.24-.39-.43-.57-.66a6.48,6.48,0,0,0-.5-.67,1.06,1.06,0,0,0-.39-.24c-.13,0-.68-.12-.75,0s.18.58.23.67.23.53.33.8a2.49,2.49,0,0,1,0,.77c0,.4-.11,1.32-.7,1.23a.49.49,0,0,1-.33-.25,1.66,1.66,0,0,1-.19-.43c-.12-.3-.17-.66-.45-.83a.41.41,0,0,0-.24-.08.57.57,0,0,0-.26,0c-.84.34.12,1.61.13,2.16a7.73,7.73,0,0,1-.18,2.35q-.18.48-.39.93a27.79,27.79,0,0,0-1.24,2.92,6,6,0,0,0-.23.83c-.09.47-.1.94-.16,1.41a1.67,1.67,0,0,1-.39,1c-.28.4-.59.79-.89,1.14l-.48.69c-.08.1-.22.44-.38.42h-.09a1.73,1.73,0,0,0-.87.73c-.11.15-.4.7-.67.5a.32.32,0,0,1-.1-.22v-.35c0-.12,0-.34.15-.4h.17s.11-.08.09-.14h0a.67.67,0,0,1-.24-.54.7.7,0,0,1,.26-.54,1.66,1.66,0,0,0,.3-.22.06.06,0,0,0,0-.06.17.17,0,0,0,0-.1.62.62,0,0,1-.16-.37.17.17,0,0,1,0-.14c0-.09.17-.09.27-.09a.65.65,0,0,0,.56-.17.77.77,0,0,1-.41-.08.46.46,0,0,1-.33-.23l.2.09h.24a.82.82,0,0,0,.44,0,1,1,0,0,0,.62-.53.77.77,0,0,1-1,.16,1.52,1.52,0,0,1-.87-1.2.55.55,0,0,0,.38.23A.66.66,0,0,1,25,38l-.07-.28a2.05,2.05,0,0,0-.1-.54,2.59,2.59,0,0,1-.29-.71,1,1,0,0,0-.22-.61c-.19-.28-.29-.6-.46-.89a4.61,4.61,0,0,0-.46-.63,2.69,2.69,0,0,0-.32-.27l-.33-.29.25.08s.14,0,.16.11a1,1,0,0,0-.51-.54,4.39,4.39,0,0,0-.44-.21,6.67,6.67,0,0,0-1.34-.53,4.05,4.05,0,0,0-2.64-.09c-.21.08-.39.19-.59.28a3.06,3.06,0,0,1-1,.28l.05.07c-.14.09-.33.14-.47.24a1.15,1.15,0,0,0-.41.35,1.7,1.7,0,0,1-.29.36.81.81,0,0,1-.38.12.2.2,0,0,0,.14.14.38.38,0,0,0,.21,0c-.19.16-.4.3-.6.46l-.28.25c-.07.07-.23.18-.26.27A1.56,1.56,0,0,0,14,36a.84.84,0,0,1-.13.54.82.82,0,0,1-.59.51.53.53,0,0,0,.49,0,6.4,6.4,0,0,1-.39.84,1.1,1.1,0,0,0,0,.87c.06.13.15.24.21.37a.62.62,0,0,1,.08.4.67.67,0,0,1-.55.45c0,.13.14.19.26.23a.75.75,0,0,0,.49-.07,1.64,1.64,0,0,1,.06.76.57.57,0,0,1-.54.46.51.51,0,0,0,.48.22c-.07,0,.13.54.15.59a1.51,1.51,0,0,0,.18.26c.07.08.16.14.22.22a4,4,0,0,0,.35.64c.16.2.23.18.32.29s.24.41.08.55a.68.68,0,0,1-.24.08h-.43a.67.67,0,0,1-.28-.06c-.11-.08-.13-.24-.2-.37a.94.94,0,0,0-.26-.3l-.17-.16A5.68,5.68,0,0,1,12.82,42c-.3-.5-.69-.93-1-1.42a9.29,9.29,0,0,1-.66-1.6,2.83,2.83,0,0,1-.13-.5,33.23,33.23,0,0,0-1.48-4.2c-.06-.19-.11-.39-.18-.58a1.14,1.14,0,0,1-.1-.6,7.64,7.64,0,0,1,.29-.8,3.44,3.44,0,0,0-.05-1,2.09,2.09,0,0,1,.22-1.1.83.83,0,0,0,0-.81.48.48,0,0,0-.5-.08c-.43.16-.41.64-.51,1,0,.17-.1.39-.32.36a1,1,0,0,1-.58-.27.69.69,0,0,0-.11-.13l-.19-.1a2.83,2.83,0,0,1-.38-.59c-.2-.37-.39-.72-.61-1.07l-.14-.24a6.32,6.32,0,0,1-.33-.56.9.9,0,0,0-.45-.51c-.21-.06-.52.09-.49.34a1.69,1.69,0,0,0,.13.49,2.31,2.31,0,0,0,.18.35,4.17,4.17,0,0,1,.35.66,2.54,2.54,0,0,0,.16.28l.25.48a.33.33,0,0,1,0,.14.15.15,0,0,1,0,.13c-.18.1-.43-.19-.54-.29l-.17-.16-.3-.3a6.83,6.83,0,0,0-.58-.51l-.66-.5a.82.82,0,0,0-.58-.2.34.34,0,0,0-.28.39v0a.73.73,0,0,0,.15.29,3.53,3.53,0,0,0,.25.28l.37.35a.92.92,0,0,0,.29.23c.11,0,.15.12.24.2l.3.24.15.13a1.27,1.27,0,0,0,.25.21,1.71,1.71,0,0,1,.26.21.24.24,0,0,1,0,.12.14.14,0,0,1-.06.12H5.18A2.49,2.49,0,0,1,4,30.57l-.24-.13a5.67,5.67,0,0,0-1-.41.46.46,0,0,0-.56.11.43.43,0,0,0,0,.35.55.55,0,0,0,.23.29h.13c.32.13.65.25,1,.4l.17.09a5,5,0,0,0,.52.26l.58.24a.43.43,0,0,1,.27.2c.08.23-.24.37-.47.4l-1.7.22a.64.64,0,0,0-.35.12.33.33,0,0,0,0,.42.6.6,0,0,0,.39.22,1.7,1.7,0,0,0,.45,0A6,6,0,0,1,4,33.26l.69-.06a.94.94,0,0,1,.41,0h.25a.73.73,0,0,1,.41.12,2.08,2.08,0,0,1,.21.21,1.08,1.08,0,0,0,.24.18l.54.38h.07c.19.21.1.6.14.85a6.37,6.37,0,0,0,.27,1.34c.18.86.4,1.72.63,2.57a4,4,0,0,0,.2.61c.1.24.26.46.34.71s.09.4.16.59c.46,1.35,1.14,2.62,1.66,4,0,0-.77.33-.78.6,0,.49.43.84.63,1.22l.2.2a.8.8,0,0,1,.11.25,6.72,6.72,0,0,0,.77,1.51,1.7,1.7,0,0,1,.43,1.05,2.87,2.87,0,0,1-.26.71,3.48,3.48,0,0,0-.1,1.54,8.31,8.31,0,0,1-.12,1.57,25,25,0,0,1-.74,3.33,1.1,1.1,0,0,0,0,.51c.1.34.51.44.87.49s.6,0,.74.42a7.11,7.11,0,0,1,.09,1.14,2,2,0,0,1,.1.85,1.54,1.54,0,0,1-.06.53c-.38.57-.22.35-.6.92a1.18,1.18,0,0,0,0,.83,9.73,9.73,0,0,1,0,1.08,22.85,22.85,0,0,0,.24,3.88v.3l.07.42a8.17,8.17,0,0,0,.16,1,2.88,2.88,0,0,1,.12.88c0,.21,0,.41,0,.62,0,.5.18,1,.18,1.5a6.46,6.46,0,0,0,0,.88,3.85,3.85,0,0,0,.45,1.21c.13.22,0,.51.07.77v.31c0,.11-.08.19-.11.29a5,5,0,0,0,0,.55,7.23,7.23,0,0,1,0,1.14,1.57,1.57,0,0,0,0,.61c0,.15.14.28.2.42a2.25,2.25,0,0,1,.07.52A8.55,8.55,0,0,0,12.89,80.2Z"/><path class="cls-1" d="M38.92,51.46a1,1,0,0,1,.54-.15,1.24,1.24,0,0,1,.78.28.86.86,0,0,1,.36.71.94.94,0,0,1-.11.42l-3.21,6.62a1,1,0,0,1-.47.5,1.37,1.37,0,0,1-1.36,0,1,1,0,0,1-.47-.5l-3.21-6.62a1,1,0,0,1-.1-.42.87.87,0,0,1,.37-.7,1.28,1.28,0,0,1,.81-.29,1,1,0,0,1,.54.15.92.92,0,0,1,.38.44l2.4,5.17,2.37-5.17A1,1,0,0,1,38.92,51.46Z"/><path class="cls-1" d="M45.85,58.23a.94.94,0,0,1,.17.57.79.79,0,0,1-.47.74,5,5,0,0,1-2,.49,3.65,3.65,0,0,1-1.73-.38,2.59,2.59,0,0,1-1.14-1.08,3.25,3.25,0,0,1-.4-1.65,3.3,3.3,0,0,1,.38-1.61,2.7,2.7,0,0,1,1.07-1.1,3,3,0,0,1,1.54-.39,2.91,2.91,0,0,1,1.47.36,2.5,2.5,0,0,1,1,1,3.4,3.4,0,0,1,.35,1.57.69.69,0,0,1-.13.43.47.47,0,0,1-.37.15H42.34a1.38,1.38,0,0,0,.38.84,1.28,1.28,0,0,0,.86.25,2.47,2.47,0,0,0,.56-.06l.57-.19.36-.13a1,1,0,0,1,.32,0A.57.57,0,0,1,45.85,58.23Zm-3.21-2.68a1.27,1.27,0,0,0-.31.79h1.91c-.05-.71-.36-1.07-.92-1.07A.85.85,0,0,0,42.64,55.55Z"/><path class="cls-1" d="M51.47,54a.87.87,0,0,1,.25.66.93.93,0,0,1-.23.7,1.34,1.34,0,0,1-.81.28l-.36,0a1.33,1.33,0,0,0-.87.38,1.31,1.31,0,0,0-.26.85V59a.91.91,0,0,1-.31.75,1.31,1.31,0,0,1-1.54,0A.91.91,0,0,1,47,59v-4.2a.87.87,0,0,1,.31-.72,1.13,1.13,0,0,1,.75-.25,1,1,0,0,1,.72.24.87.87,0,0,1,.27.68V55a1.59,1.59,0,0,1,.64-.82,1.79,1.79,0,0,1,.93-.32h.17A.82.82,0,0,1,51.47,54Z"/><path class="cls-1" d="M61.26,54.4a3,3,0,0,1,.53,2V59a.91.91,0,0,1-.31.75,1.21,1.21,0,0,1-.77.25,1.23,1.23,0,0,1-.77-.25.91.91,0,0,1-.31-.75V56.34a1.07,1.07,0,0,0-.17-.68.62.62,0,0,0-.5-.19.85.85,0,0,0-.68.3,1.26,1.26,0,0,0-.25.84V59a.91.91,0,0,1-.31.75,1.31,1.31,0,0,1-1.54,0,.91.91,0,0,1-.31-.75V56.34a1.07,1.07,0,0,0-.17-.68.63.63,0,0,0-.5-.19.82.82,0,0,0-.67.3,1.26,1.26,0,0,0-.25.84V59a.94.94,0,0,1-.31.75,1.25,1.25,0,0,1-.77.25,1.21,1.21,0,0,1-.77-.25.91.91,0,0,1-.31-.75v-4.2a.84.84,0,0,1,.32-.72,1.19,1.19,0,0,1,.77-.25,1.11,1.11,0,0,1,.71.22.82.82,0,0,1,.3.65A2,2,0,0,1,56,53.82a1.69,1.69,0,0,1,1.73,1,2.33,2.33,0,0,1,.82-.77,2.3,2.3,0,0,1,1.15-.28A2,2,0,0,1,61.26,54.4Z"/><path class="cls-1" d="M64.29,59.65a2.78,2.78,0,0,1-1.16-1.09,3.25,3.25,0,0,1-.4-1.65,3.19,3.19,0,0,1,.4-1.64,2.73,2.73,0,0,1,1.15-1.08,4.25,4.25,0,0,1,3.47,0,2.73,2.73,0,0,1,1.15,1.08,3.19,3.19,0,0,1,.41,1.64,3.26,3.26,0,0,1-.41,1.65,2.81,2.81,0,0,1-1.15,1.09,4.13,4.13,0,0,1-3.46,0Zm2.88-2.74c0-1-.39-1.5-1.15-1.5s-1.16.5-1.16,1.5.39,1.51,1.16,1.51S67.17,57.91,67.17,56.91Z"/><path class="cls-1" d="M75.9,54.45a3.08,3.08,0,0,1,.52,1.94V59a1,1,0,0,1-.29.73,1.13,1.13,0,0,1-.79.27,1.11,1.11,0,0,1-.79-.27,1,1,0,0,1-.29-.73V56.49a1.24,1.24,0,0,0-.19-.78.67.67,0,0,0-.56-.24,1,1,0,0,0-.78.31,1.16,1.16,0,0,0-.28.83V59a1,1,0,0,1-.29.73,1.13,1.13,0,0,1-.79.27,1.11,1.11,0,0,1-.79-.27,1,1,0,0,1-.29-.73v-4.2a.91.91,0,0,1,.3-.7,1.15,1.15,0,0,1,.79-.27,1.05,1.05,0,0,1,.74.25.89.89,0,0,1,.27.67,2,2,0,0,1,.81-.7,2.51,2.51,0,0,1,1.11-.24A2,2,0,0,1,75.9,54.45Z"/><path class="cls-1" d="M82,59.19a.68.68,0,0,1-.33.63,1.51,1.51,0,0,1-.93.17l-.34,0a2.56,2.56,0,0,1-1.66-.66,2.2,2.2,0,0,1-.57-1.61V55.55H77.8c-.64,0-1-.27-1-.8s.33-.79,1-.79h.35v-.79a.93.93,0,0,1,.3-.73,1.24,1.24,0,0,1,1.57,0,.93.93,0,0,1,.3.73V54H81c.65,0,1,.26,1,.79s-.32.8-1,.8h-.66v2.33a.52.52,0,0,0,.14.39.47.47,0,0,0,.35.17l.36,0C81.71,58.5,82,58.74,82,59.19Z"/><path class="cls-1" d="M83.07,55a.84.84,0,0,1-.24-.48l-.38-1.76a2.16,2.16,0,0,1,0-.35,1.06,1.06,0,0,1,.3-.8,1.32,1.32,0,0,1,1.65,0,1.06,1.06,0,0,1,.3.8,2.16,2.16,0,0,1,0,.35l-.37,1.76A.88.88,0,0,1,84,55a.65.65,0,0,1-.48.16A.63.63,0,0,1,83.07,55Z"/><path class="cls-1" d="M86.79,59.91a3,3,0,0,1-1-.39.57.57,0,0,1-.26-.29,1,1,0,0,1-.1-.46.85.85,0,0,1,.17-.54.57.57,0,0,1,.45-.21,1.27,1.27,0,0,1,.34,0,3.24,3.24,0,0,1,.39.14,5.37,5.37,0,0,0,.68.2,3.16,3.16,0,0,0,.76.08,1.25,1.25,0,0,0,.52-.09.29.29,0,0,0,.18-.26.26.26,0,0,0-.09-.21.86.86,0,0,0-.34-.14c-.17-.05-.46-.11-.86-.19A3.48,3.48,0,0,1,86.08,57a1.5,1.5,0,0,1-.48-1.19,1.62,1.62,0,0,1,.34-1,2.35,2.35,0,0,1,1-.7,3.42,3.42,0,0,1,1.35-.25,4.24,4.24,0,0,1,1.07.13,3.11,3.11,0,0,1,.91.38.75.75,0,0,1,.38.7.88.88,0,0,1-.18.57.56.56,0,0,1-.45.23,1.79,1.79,0,0,1-.75-.21l-.52-.2a2.09,2.09,0,0,0-.53-.06,1,1,0,0,0-.47.09.29.29,0,0,0-.17.26.33.33,0,0,0,.24.3,4.11,4.11,0,0,0,.94.25,3.44,3.44,0,0,1,1.66.62,1.52,1.52,0,0,1,.48,1.21,1.64,1.64,0,0,1-.73,1.41,3.33,3.33,0,0,1-2,.53A6.63,6.63,0,0,1,86.79,59.91Z"/><path class="cls-1" d="M95.64,59.67a1,1,0,0,1-.27-.77V52.41a1,1,0,0,1,.27-.77,1,1,0,0,1,.76-.26h4.2a1.26,1.26,0,0,1,.79.21.78.78,0,0,1,.27.64c0,.58-.35.87-1.06.87H97.54v1.63h2.82c.7,0,1,.28,1,.86a.8.8,0,0,1-.26.63,1.26,1.26,0,0,1-.79.22H97.54v1.77h3.06c.71,0,1.06.29,1.06.87a.75.75,0,0,1-.27.63,1.2,1.2,0,0,1-.79.22H96.4A1,1,0,0,1,95.64,59.67Z"/><path class="cls-1" d="M107.3,54.48a2.78,2.78,0,0,1,.66,2V59a1,1,0,0,1-.28.73,1.06,1.06,0,0,1-.76.26,1,1,0,0,1-.69-.25.89.89,0,0,1-.3-.65,1.31,1.31,0,0,1-.57.68,1.85,1.85,0,0,1-1,.24,2.43,2.43,0,0,1-1.12-.25,1.87,1.87,0,0,1-.78-.69,1.83,1.83,0,0,1-.29-1,1.49,1.49,0,0,1,.34-1,2,2,0,0,1,1.06-.55,9.27,9.27,0,0,1,2-.17h.32v-.15a.83.83,0,0,0-.19-.61,1,1,0,0,0-.65-.19,5,5,0,0,0-1.46.34,1.41,1.41,0,0,1-.47.1.59.59,0,0,1-.49-.22.85.85,0,0,1-.18-.57.76.76,0,0,1,.11-.44,1,1,0,0,1,.35-.3A4.47,4.47,0,0,1,104,54a6.06,6.06,0,0,1,1.26-.13A2.82,2.82,0,0,1,107.3,54.48Zm-1.67,3.8a1.17,1.17,0,0,0,.27-.8v-.14h-.19a2.87,2.87,0,0,0-1.1.14.47.47,0,0,0-.33.46.65.65,0,0,0,.17.46.59.59,0,0,0,.46.19A1,1,0,0,0,105.63,58.28Z"/><path class="cls-1" d="M113.61,54a.83.83,0,0,1,.25.66.93.93,0,0,1-.23.7,1.34,1.34,0,0,1-.81.28l-.36,0a1.36,1.36,0,0,0-.87.38,1.31,1.31,0,0,0-.26.85V59a.91.91,0,0,1-.31.75,1.21,1.21,0,0,1-.77.25,1.23,1.23,0,0,1-.77-.25.91.91,0,0,1-.31-.75v-4.2a.87.87,0,0,1,.31-.72,1.15,1.15,0,0,1,.75-.25,1,1,0,0,1,.72.24.87.87,0,0,1,.27.68V55a1.59,1.59,0,0,1,.64-.82,1.79,1.79,0,0,1,.93-.32H113A.82.82,0,0,1,113.61,54Z"/><path class="cls-1" d="M114.57,59.76a.91.91,0,0,1-.31-.75V52.32a.91.91,0,0,1,.31-.75,1.16,1.16,0,0,1,.77-.26,1.18,1.18,0,0,1,.77.26.94.94,0,0,1,.31.75V59a.94.94,0,0,1-.31.75,1.23,1.23,0,0,1-.77.25A1.21,1.21,0,0,1,114.57,59.76Z"/><path class="cls-1" d="M122,54a.9.9,0,0,1,.51-.15,1.07,1.07,0,0,1,.71.27.82.82,0,0,1,.22,1l-3.22,6.45a1,1,0,0,1-.38.45,1,1,0,0,1-.52.14,1,1,0,0,1-.7-.26.79.79,0,0,1-.32-.63,1,1,0,0,1,.11-.43l.79-1.59-2.06-4.13a.87.87,0,0,1-.1-.39.85.85,0,0,1,.34-.66,1.21,1.21,0,0,1,.77-.27,1,1,0,0,1,.54.15,1,1,0,0,1,.38.46l1.29,2.79,1.27-2.79A.89.89,0,0,1,122,54Z"/><path class="cls-1" d="M129.65,59.51A3.72,3.72,0,0,1,128.16,58a5.36,5.36,0,0,1,0-4.65,3.72,3.72,0,0,1,1.49-1.53,5,5,0,0,1,5,.28.9.9,0,0,1,.3.32.89.89,0,0,1,.09.43,1,1,0,0,1-.21.64.65.65,0,0,1-.52.26,1,1,0,0,1-.32,0,1.89,1.89,0,0,1-.34-.18,3.43,3.43,0,0,0-.8-.36A2.58,2.58,0,0,0,132,53a1.93,1.93,0,0,0-1.61.65,3.94,3.94,0,0,0,0,4,1.93,1.93,0,0,0,1.61.65,2.33,2.33,0,0,0,.7-.11c.23-.08.52-.2.88-.36l.37-.18a.71.71,0,0,1,.81.21,1,1,0,0,1,.21.64.94.94,0,0,1-.09.43.9.9,0,0,1-.3.32,4.6,4.6,0,0,1-2.7.81A4.69,4.69,0,0,1,129.65,59.51Z"/><path class="cls-1" d="M141.56,54.45a3.08,3.08,0,0,1,.51,1.94V59a1,1,0,0,1-.29.73A1.13,1.13,0,0,1,141,60a1.1,1.1,0,0,1-.79-.27.92.92,0,0,1-.29-.73V56.34c0-.58-.26-.87-.76-.87a1,1,0,0,0-.77.31,1.16,1.16,0,0,0-.28.83V59a1,1,0,0,1-.29.73A1.13,1.13,0,0,1,137,60a1.11,1.11,0,0,1-.79-.27.92.92,0,0,1-.29-.73V52.29a.89.89,0,0,1,.3-.7,1.16,1.16,0,0,1,.8-.28,1.14,1.14,0,0,1,.77.26.88.88,0,0,1,.29.68v2.43a2.13,2.13,0,0,1,.81-.65,2.72,2.72,0,0,1,1.09-.21A1.89,1.89,0,0,1,141.56,54.45Z"/><path class="cls-1" d="M143.49,52.7a1.05,1.05,0,0,1,0-1.51,1.33,1.33,0,0,1,.87-.28,1.29,1.29,0,0,1,.86.28,1,1,0,0,1,.33.76,1,1,0,0,1-.32.75,1.21,1.21,0,0,1-.87.29A1.24,1.24,0,0,1,143.49,52.7Zm.1,7.06a.94.94,0,0,1-.31-.75V54.83a.9.9,0,0,1,.31-.74,1.19,1.19,0,0,1,.77-.25,1.15,1.15,0,0,1,.77.25.87.87,0,0,1,.31.74V59a.91.91,0,0,1-.31.75,1.21,1.21,0,0,1-.77.25A1.25,1.25,0,0,1,143.59,59.76Z"/><path class="cls-1" d="M147,59.76a.94.94,0,0,1-.31-.75V52.32a.94.94,0,0,1,.31-.75,1.19,1.19,0,0,1,.77-.26,1.16,1.16,0,0,1,.77.26.91.91,0,0,1,.31.75V59a.91.91,0,0,1-.31.75,1.21,1.21,0,0,1-.77.25A1.25,1.25,0,0,1,147,59.76Z"/><path class="cls-1" d="M156.12,51.59a.9.9,0,0,1,.31.7V59a1,1,0,0,1-.29.73,1.12,1.12,0,0,1-.78.27,1.09,1.09,0,0,1-.73-.24.94.94,0,0,1-.33-.65,1.73,1.73,0,0,1-.74.67,2.58,2.58,0,0,1-2.45-.15,2.79,2.79,0,0,1-1-1.11,3.91,3.91,0,0,1-.34-1.64,3.72,3.72,0,0,1,.34-1.62,2.47,2.47,0,0,1,.93-1.08,2.55,2.55,0,0,1,1.38-.37,2.31,2.31,0,0,1,1.05.23,1.85,1.85,0,0,1,.75.62V52.25a.87.87,0,0,1,.28-.68,1.12,1.12,0,0,1,.77-.26A1.18,1.18,0,0,1,156.12,51.59ZM154,58a1.8,1.8,0,0,0,.3-1.12,1.76,1.76,0,0,0-.3-1.1,1.05,1.05,0,0,0-.87-.38,1.07,1.07,0,0,0-.87.38,1.69,1.69,0,0,0-.3,1.08,1.87,1.87,0,0,0,.31,1.13,1,1,0,0,0,.86.4A1,1,0,0,0,154,58Z"/><path class="cls-1" d="M163.31,54.45a3.08,3.08,0,0,1,.51,1.94V59a1,1,0,0,1-.29.73,1.11,1.11,0,0,1-.79.27,1.13,1.13,0,0,1-.79-.27,1,1,0,0,1-.29-.73V56.34q0-.87-.75-.87a1,1,0,0,0-.77.31,1.16,1.16,0,0,0-.29.83V59a1,1,0,0,1-.29.73,1.11,1.11,0,0,1-.79.27,1.13,1.13,0,0,1-.79-.27,1,1,0,0,1-.29-.73V52.29a.89.89,0,0,1,.3-.7,1.19,1.19,0,0,1,.81-.28,1.11,1.11,0,0,1,.76.26.88.88,0,0,1,.29.68v2.43a2.13,2.13,0,0,1,.81-.65,2.77,2.77,0,0,1,1.1-.21A1.88,1.88,0,0,1,163.31,54.45Z"/><path class="cls-1" d="M166.32,59.65a2.78,2.78,0,0,1-1.16-1.09,3.26,3.26,0,0,1-.41-1.65,3.19,3.19,0,0,1,.41-1.64,2.73,2.73,0,0,1,1.15-1.08,4.25,4.25,0,0,1,3.47,0,2.73,2.73,0,0,1,1.15,1.08,3.19,3.19,0,0,1,.4,1.64,3.25,3.25,0,0,1-.4,1.65,2.81,2.81,0,0,1-1.15,1.09,4.13,4.13,0,0,1-3.46,0Zm2.88-2.74c0-1-.39-1.5-1.15-1.5s-1.16.5-1.16,1.5.39,1.51,1.16,1.51S169.2,57.91,169.2,56.91Z"/><path class="cls-1" d="M173.6,59.65a2.75,2.75,0,0,1-1.15-1.09,3.16,3.16,0,0,1-.41-1.65,3.1,3.1,0,0,1,.41-1.64,2.7,2.7,0,0,1,1.14-1.08,4.28,4.28,0,0,1,3.48,0,2.7,2.7,0,0,1,1.14,1.08,3.19,3.19,0,0,1,.41,1.64,3.26,3.26,0,0,1-.41,1.65,2.79,2.79,0,0,1-1.14,1.09,3.84,3.84,0,0,1-1.74.38A3.8,3.8,0,0,1,173.6,59.65Zm2.88-2.74c0-1-.38-1.5-1.15-1.5s-1.15.5-1.15,1.5.38,1.51,1.15,1.51S176.48,57.91,176.48,56.91Z"/><path class="cls-1" d="M185.62,51.59a.9.9,0,0,1,.31.7V59a1,1,0,0,1-.29.73,1.26,1.26,0,0,1-1.52,0,.93.93,0,0,1-.32-.65,1.79,1.79,0,0,1-.74.67,2.6,2.6,0,0,1-2.46-.15,2.77,2.77,0,0,1-.94-1.11,3.91,3.91,0,0,1-.34-1.64,3.58,3.58,0,0,1,.34-1.62,2.47,2.47,0,0,1,.93-1.08,2.55,2.55,0,0,1,1.38-.37,2.31,2.31,0,0,1,1.05.23,1.85,1.85,0,0,1,.75.62V52.25a.87.87,0,0,1,.28-.68,1.12,1.12,0,0,1,.77-.26A1.18,1.18,0,0,1,185.62,51.59ZM183.5,58a1.8,1.8,0,0,0,.3-1.12,1.76,1.76,0,0,0-.3-1.1,1.19,1.19,0,0,0-1.74,0,1.69,1.69,0,0,0-.3,1.08,1.81,1.81,0,0,0,.31,1.13,1.14,1.14,0,0,0,1.73,0Z"/><path class="cls-1" d="M39.82,73.7a.81.81,0,0,1-.32.65,1.2,1.2,0,0,1-.75.26,1.17,1.17,0,0,1-.55-.13,1.26,1.26,0,0,1-.43-.4l-1.58-2.31a1.23,1.23,0,0,0-.36-.36.78.78,0,0,0-.44-.11H34.6v2.17a1.13,1.13,0,0,1-.29.81,1.11,1.11,0,0,1-.8.29,1.13,1.13,0,0,1-.81-.29,1.09,1.09,0,0,1-.3-.81V67a.94.94,0,0,1,1-1h3a3.49,3.49,0,0,1,2.34.68,2.42,2.42,0,0,1,.78,1.94,2.47,2.47,0,0,1-2,2.55,1.6,1.6,0,0,1,.7.27,2.72,2.72,0,0,1,.59.62l.75,1.08A1.11,1.11,0,0,1,39.82,73.7Zm-2.63-4.31a.84.84,0,0,0,.32-.75.86.86,0,0,0-.32-.77,1.8,1.8,0,0,0-1.06-.24H34.57v2h1.56A1.89,1.89,0,0,0,37.19,69.39Z"/><path class="cls-1" d="M46.15,72.8a.88.88,0,0,1,.18.57.8.8,0,0,1-.48.74,4.38,4.38,0,0,1-1,.35,4.6,4.6,0,0,1-1,.14,3.78,3.78,0,0,1-1.74-.38A2.7,2.7,0,0,1,41,73.14a3.25,3.25,0,0,1-.4-1.65,3.42,3.42,0,0,1,.38-1.61A2.76,2.76,0,0,1,42,68.78a3,3,0,0,1,1.55-.4,2.82,2.82,0,0,1,1.47.37,2.42,2.42,0,0,1,1,1,3.35,3.35,0,0,1,.35,1.56.66.66,0,0,1-.13.44.45.45,0,0,1-.37.15h-3.2A1.07,1.07,0,0,0,43.89,73a1.93,1.93,0,0,0,.55-.07,4.55,4.55,0,0,0,.57-.18l.36-.13a1,1,0,0,1,.32-.06A.58.58,0,0,1,46.15,72.8Zm-3.21-2.69a1.3,1.3,0,0,0-.3.8h1.9c0-.71-.35-1.07-.92-1.07A.9.9,0,0,0,42.94,70.11Z"/><path class="cls-1" d="M48.32,74.48a3,3,0,0,1-1-.39.62.62,0,0,1-.26-.29,1,1,0,0,1-.1-.46.85.85,0,0,1,.17-.54.55.55,0,0,1,.45-.22,1.27,1.27,0,0,1,.34,0,2.1,2.1,0,0,1,.39.14L49,73a3.22,3.22,0,0,0,.76.07,1.25,1.25,0,0,0,.52-.09.28.28,0,0,0,.18-.26.23.23,0,0,0-.09-.2.86.86,0,0,0-.34-.14c-.17,0-.46-.11-.86-.19a3.36,3.36,0,0,1-1.56-.63,1.48,1.48,0,0,1-.48-1.18,1.62,1.62,0,0,1,.34-1,2.26,2.26,0,0,1,1-.7,3.44,3.44,0,0,1,1.36-.26,4.23,4.23,0,0,1,1.06.14,3.4,3.4,0,0,1,.91.37.76.76,0,0,1,.38.71.92.92,0,0,1-.18.57.56.56,0,0,1-.45.23,1.79,1.79,0,0,1-.75-.21,5.31,5.31,0,0,0-.52-.2,2.06,2.06,0,0,0-.53-.07.89.89,0,0,0-.47.1.28.28,0,0,0-.17.26.33.33,0,0,0,.24.3,5,5,0,0,0,.94.24,3.54,3.54,0,0,1,1.66.63,1.52,1.52,0,0,1,.49,1.21,1.65,1.65,0,0,1-.74,1.41,3.33,3.33,0,0,1-2,.53A6.63,6.63,0,0,1,48.32,74.48Z"/><path class="cls-1" d="M54.56,74.22a2.75,2.75,0,0,1-1.15-1.09,3.53,3.53,0,0,1,0-3.3,2.71,2.71,0,0,1,1.15-1.07,3.77,3.77,0,0,1,1.73-.38,3.81,3.81,0,0,1,1.74.38,2.74,2.74,0,0,1,1.14,1.07,3.53,3.53,0,0,1,0,3.3A2.79,2.79,0,0,1,58,74.22a4.15,4.15,0,0,1-3.47,0Zm2.88-2.74c0-1-.38-1.51-1.15-1.51s-1.15.51-1.15,1.51.38,1.5,1.15,1.5S57.44,72.48,57.44,71.48Z"/><path class="cls-1" d="M66.29,68.67a.93.93,0,0,1,.3.73v4.2a.9.9,0,0,1-.31.7,1.13,1.13,0,0,1-.79.27,1,1,0,0,1-.71-.23.79.79,0,0,1-.29-.64,2.06,2.06,0,0,1-.71.67,2.13,2.13,0,0,1-1,.23A2.17,2.17,0,0,1,61.07,74,2.88,2.88,0,0,1,60.52,72V69.4a.92.92,0,0,1,.29-.73,1.14,1.14,0,0,1,.79-.26,1.17,1.17,0,0,1,.79.26,1,1,0,0,1,.29.73v2.67c0,.59.25.88.75.88a.93.93,0,0,0,.72-.32,1.21,1.21,0,0,0,.28-.82V69.4a.92.92,0,0,1,.29-.73,1.32,1.32,0,0,1,1.57,0Z"/><path class="cls-1" d="M72.29,68.6a.86.86,0,0,1,.24.66,1,1,0,0,1-.22.7,1.34,1.34,0,0,1-.81.28l-.36,0a1.27,1.27,0,0,0-.87.38,1.3,1.3,0,0,0-.26.84v2.08a.91.91,0,0,1-.31.75,1.22,1.22,0,0,1-.77.24,1.2,1.2,0,0,1-.77-.24.91.91,0,0,1-.31-.75v-4.2a.87.87,0,0,1,.31-.72,1.11,1.11,0,0,1,.74-.25,1.09,1.09,0,0,1,.73.24.87.87,0,0,1,.27.68v.23a1.62,1.62,0,0,1,.64-.83,1.87,1.87,0,0,1,.93-.31h.17A.79.79,0,0,1,72.29,68.6Z"/><path class="cls-1" d="M73.38,73.77a3,3,0,0,1-.85-2.24A3.16,3.16,0,0,1,73,69.88a2.76,2.76,0,0,1,1.16-1.11,3.58,3.58,0,0,1,1.7-.39,4,4,0,0,1,1,.14,3.33,3.33,0,0,1,.9.37.79.79,0,0,1,.38.71,1,1,0,0,1-.18.61.54.54,0,0,1-.45.24,1.09,1.09,0,0,1-.36-.06,1.88,1.88,0,0,1-.37-.16l-.42-.17A1.38,1.38,0,0,0,76,70q-1.2,0-1.2,1.47a1.73,1.73,0,0,0,.31,1.11A1.08,1.08,0,0,0,76,73a1.52,1.52,0,0,0,.38,0,2.1,2.1,0,0,0,.39-.17l.4-.16a.88.88,0,0,1,.33-.06.55.55,0,0,1,.46.24,1,1,0,0,1,.17.61.93.93,0,0,1-.09.42.76.76,0,0,1-.27.29,3.86,3.86,0,0,1-2,.51A3.19,3.19,0,0,1,73.38,73.77Z"/><path class="cls-1" d="M84.19,72.8a.88.88,0,0,1,.18.57.8.8,0,0,1-.47.74,4.47,4.47,0,0,1-1,.35,4.52,4.52,0,0,1-1,.14,3.77,3.77,0,0,1-1.73-.38A2.67,2.67,0,0,1,79,73.14a3.36,3.36,0,0,1-.4-1.65A3.31,3.31,0,0,1,79,69.88a2.74,2.74,0,0,1,1.06-1.1,3,3,0,0,1,1.55-.4,2.82,2.82,0,0,1,1.47.37,2.44,2.44,0,0,1,1,1,3.35,3.35,0,0,1,.34,1.56.72.72,0,0,1-.12.44.47.47,0,0,1-.37.15H80.69a1.32,1.32,0,0,0,.38.84,1.26,1.26,0,0,0,.86.25,2,2,0,0,0,.56-.07,4.55,4.55,0,0,0,.57-.18,2.6,2.6,0,0,1,.36-.13,1,1,0,0,1,.32-.06A.56.56,0,0,1,84.19,72.8ZM81,70.11a1.3,1.3,0,0,0-.3.8h1.91c0-.71-.36-1.07-.93-1.07A.9.9,0,0,0,81,70.11Z"/><path class="cls-1" d="M87.23,72.61a1.64,1.64,0,0,1,.33,1.1,3.37,3.37,0,0,1-1,2.45.55.55,0,0,1-.42.19.61.61,0,0,1-.42-.17.47.47,0,0,1-.19-.37.5.5,0,0,1,.16-.35,2.39,2.39,0,0,0,.58-1,1.19,1.19,0,0,1-.75-.34,1,1,0,0,1-.29-.75,1.15,1.15,0,0,1,.33-.84,1.07,1.07,0,0,1,.81-.34A1.08,1.08,0,0,1,87.23,72.61Z"/><path class="cls-1" d="M92.56,74.23a1,1,0,0,1-.26-.76V67a1.06,1.06,0,0,1,.26-.76,1,1,0,0,1,.77-.27h2.45a5.33,5.33,0,0,1,2.45.52,3.66,3.66,0,0,1,1.57,1.47,5.15,5.15,0,0,1,0,4.59A3.58,3.58,0,0,1,98.24,74a5.48,5.48,0,0,1-2.46.51H93.33A1,1,0,0,1,92.56,74.23Zm3.06-1.53a2.58,2.58,0,0,0,1.88-.61,2.5,2.5,0,0,0,.62-1.87,2.47,2.47,0,0,0-.62-1.87,2.58,2.58,0,0,0-1.88-.61H94.53v5Z"/><path class="cls-1" d="M106.36,69a2.77,2.77,0,0,1,.66,2v2.54a.94.94,0,0,1-.27.72,1.19,1.19,0,0,1-1.46,0,.93.93,0,0,1-.3-.65,1.35,1.35,0,0,1-.57.68,1.79,1.79,0,0,1-1,.24,2.4,2.4,0,0,1-1.12-.25,1.94,1.94,0,0,1-.78-.69,1.83,1.83,0,0,1-.29-1,1.52,1.52,0,0,1,.33-1,2,2,0,0,1,1.07-.55,8.56,8.56,0,0,1,2-.17H105v-.15a.85.85,0,0,0-.19-.61.91.91,0,0,0-.66-.19,4.75,4.75,0,0,0-1.46.34,1.32,1.32,0,0,1-.47.1.61.61,0,0,1-.49-.22.88.88,0,0,1-.18-.57.84.84,0,0,1,.11-.44,1,1,0,0,1,.35-.3,4.2,4.2,0,0,1,1.07-.35,6.17,6.17,0,0,1,1.27-.14A2.78,2.78,0,0,1,106.36,69Zm-1.67,3.8a1.11,1.11,0,0,0,.28-.79V71.9h-.19a3.19,3.19,0,0,0-1.11.14.49.49,0,0,0-.33.47.62.62,0,0,0,.64.64A.9.9,0,0,0,104.69,72.84Z"/><path class="cls-1" d="M112.58,73.76a.7.7,0,0,1-.33.63,1.5,1.5,0,0,1-.93.17l-.34,0a2.56,2.56,0,0,1-1.66-.66,2.24,2.24,0,0,1-.56-1.61V70.12h-.36c-.64,0-1-.27-1-.8s.33-.79,1-.79h.36v-.79a1,1,0,0,1,.29-.74,1.11,1.11,0,0,1,.79-.27,1.13,1.13,0,0,1,.79.27,1,1,0,0,1,.29.74v.79h.67c.64,0,1,.26,1,.79s-.33.8-1,.8h-.67v2.33a.6.6,0,0,0,.14.39.51.51,0,0,0,.36.17l.35,0C112.31,73.06,112.58,73.31,112.58,73.76Z"/><path class="cls-1" d="M118,69a2.77,2.77,0,0,1,.66,2v2.54a.94.94,0,0,1-.27.72,1,1,0,0,1-.76.26,1,1,0,0,1-.7-.24.93.93,0,0,1-.3-.65,1.35,1.35,0,0,1-.57.68,1.85,1.85,0,0,1-1,.24,2.39,2.39,0,0,1-1.11-.25,2,2,0,0,1-.79-.69,1.82,1.82,0,0,1-.28-1,1.52,1.52,0,0,1,.33-1,2,2,0,0,1,1.06-.55,8.65,8.65,0,0,1,2-.17h.33v-.15a.81.81,0,0,0-.2-.61.89.89,0,0,0-.65-.19,4.69,4.69,0,0,0-1.46.34,1.37,1.37,0,0,1-.47.1.59.59,0,0,1-.49-.22.88.88,0,0,1-.18-.57.84.84,0,0,1,.11-.44,1,1,0,0,1,.35-.3,4.07,4.07,0,0,1,1.07-.35,6.16,6.16,0,0,1,1.26-.14A2.81,2.81,0,0,1,118,69Zm-1.67,3.8a1.15,1.15,0,0,0,.28-.79V71.9h-.2a3.17,3.17,0,0,0-1.1.14.49.49,0,0,0-.33.47.62.62,0,0,0,.18.46.58.58,0,0,0,.45.18A.92.92,0,0,0,116.31,72.84Z"/><path class="cls-1" d="M121.7,72.61a1.59,1.59,0,0,1,.34,1.1,3.41,3.41,0,0,1-1,2.45.55.55,0,0,1-.42.19.61.61,0,0,1-.43-.17.49.49,0,0,1-.18-.37.46.46,0,0,1,.16-.35,2.51,2.51,0,0,0,.58-1,1.14,1.14,0,0,1-.75-.34,1,1,0,0,1-.29-.75,1.19,1.19,0,0,1,.32-.84,1.15,1.15,0,0,1,1.68,0Z"/><path class="cls-1" d="M134.54,73.75a.78.78,0,0,1-.27.59.92.92,0,0,1-.64.26.93.93,0,0,1-.62-.24l-.88-.79a4.62,4.62,0,0,1-1.3.76,3.89,3.89,0,0,1-1.42.27,3.94,3.94,0,0,1-1.62-.31,2.58,2.58,0,0,1-1.11-.87,2.17,2.17,0,0,1-.39-1.27,2.41,2.41,0,0,1,.37-1.34,3.48,3.48,0,0,1,1.19-1.06,2.46,2.46,0,0,1-.76-1.71,2,2,0,0,1,.32-1.13,2.15,2.15,0,0,1,.93-.77,3.18,3.18,0,0,1,1.38-.28,2.58,2.58,0,0,1,1.74.55,1.84,1.84,0,0,1,.64,1.47A2.41,2.41,0,0,1,130.69,70l1.25,1.1a4,4,0,0,0,.38-1.24,1,1,0,0,1,.31-.62.91.91,0,0,1,.6-.21.89.89,0,0,1,.59.21.79.79,0,0,1,.25.6V70a5.31,5.31,0,0,1-.81,2.3l1,.86A.85.85,0,0,1,134.54,73.75Zm-3.65-1.28L129,70.81a1.38,1.38,0,0,0-.66,1.19.93.93,0,0,0,.31.72,1.27,1.27,0,0,0,.83.26A2.28,2.28,0,0,0,130.89,72.47Zm-1.69-5A.76.76,0,0,0,129,68a.71.71,0,0,0,.13.41,3,3,0,0,0,.43.53,2.21,2.21,0,0,0,.68-.48.84.84,0,0,0,.2-.54.73.73,0,0,0-.19-.51.69.69,0,0,0-.48-.19A.72.72,0,0,0,129.2,67.47Z"/><path class="cls-1" d="M139.06,74.28a1.09,1.09,0,0,1-.29-.81V67a1,1,0,0,1,.26-.76,1,1,0,0,1,.77-.27h3.1a3.1,3.1,0,0,1,2.21.73,2.56,2.56,0,0,1,.79,2,2.6,2.6,0,0,1-.79,2,3.18,3.18,0,0,1-2.21.73H141v2.06a1.09,1.09,0,0,1-.3.81,1.18,1.18,0,0,1-.83.29A1.13,1.13,0,0,1,139.06,74.28Zm3.54-4.55a1.4,1.4,0,0,0,.92-.25,1,1,0,0,0,.3-.79c0-.71-.41-1.06-1.22-1.06H141v2.1Z"/><path class="cls-1" d="M147.86,74.22a2.81,2.81,0,0,1-1.15-1.09,3.53,3.53,0,0,1,0-3.3,2.71,2.71,0,0,1,1.15-1.07,4.15,4.15,0,0,1,3.47,0,2.77,2.77,0,0,1,1.15,1.07,3.6,3.6,0,0,1,0,3.3,2.81,2.81,0,0,1-1.15,1.09,3.78,3.78,0,0,1-1.74.38A3.83,3.83,0,0,1,147.86,74.22Zm2.89-2.74c0-1-.39-1.51-1.16-1.51s-1.15.51-1.15,1.51.38,1.5,1.15,1.5S150.75,72.48,150.75,71.48Z"/><path class="cls-1" d="M154.18,74.33a.91.91,0,0,1-.31-.75V66.89a.91.91,0,0,1,.31-.75,1.16,1.16,0,0,1,.77-.26,1.19,1.19,0,0,1,.77.26.94.94,0,0,1,.31.75v6.69a.94.94,0,0,1-.31.75,1.24,1.24,0,0,1-.77.24A1.2,1.2,0,0,1,154.18,74.33Z"/><path class="cls-1" d="M157.49,67.27a1.05,1.05,0,0,1,0-1.51,1.25,1.25,0,0,1,.87-.28,1.27,1.27,0,0,1,.86.28.94.94,0,0,1,.33.75,1,1,0,0,1-.32.76,1.29,1.29,0,0,1-.87.29A1.25,1.25,0,0,1,157.49,67.27Zm.1,7.06a.91.91,0,0,1-.31-.75V69.4a.87.87,0,0,1,.31-.74,1.15,1.15,0,0,1,.77-.25,1.17,1.17,0,0,1,.77.25.9.9,0,0,1,.31.74v4.18a.94.94,0,0,1-.31.75,1.22,1.22,0,0,1-.77.24A1.2,1.2,0,0,1,157.59,74.33Z"/><path class="cls-1" d="M161.26,73.77a3,3,0,0,1-.85-2.24,3.26,3.26,0,0,1,.41-1.65A2.82,2.82,0,0,1,162,68.77a3.65,3.65,0,0,1,1.71-.39,4,4,0,0,1,1,.14,3.33,3.33,0,0,1,.9.37.78.78,0,0,1,.37.71,1,1,0,0,1-.17.61.55.55,0,0,1-.46.24,1,1,0,0,1-.35-.06,2.24,2.24,0,0,1-.38-.16l-.41-.17a1.46,1.46,0,0,0-.38,0q-1.2,0-1.2,1.47a1.73,1.73,0,0,0,.31,1.11,1.09,1.09,0,0,0,.89.38,1.6,1.6,0,0,0,.39,0,2.9,2.9,0,0,0,.39-.17l.39-.16a1,1,0,0,1,.34-.06.53.53,0,0,1,.45.24,1,1,0,0,1,.18.61.82.82,0,0,1-.1.42.67.67,0,0,1-.26.29,3.86,3.86,0,0,1-2,.51A3.17,3.17,0,0,1,161.26,73.77Z"/><path class="cls-1" d="M171.12,68.56a1,1,0,0,1,.51-.14,1.07,1.07,0,0,1,.71.27.8.8,0,0,1,.32.64.82.82,0,0,1-.1.4l-3.22,6.45a1,1,0,0,1-.38.45,1,1,0,0,1-.51.14,1.12,1.12,0,0,1-.72-.26.81.81,0,0,1-.3-.64.83.83,0,0,1,.11-.42l.78-1.59-2.06-4.13a1.07,1.07,0,0,1-.1-.39.83.83,0,0,1,.34-.66,1.21,1.21,0,0,1,.77-.27,1,1,0,0,1,.54.15,1,1,0,0,1,.38.45l1.29,2.8,1.27-2.8A1,1,0,0,1,171.12,68.56Z"/><path class="cls-1" d="M178.75,74.08a3.69,3.69,0,0,1-1.5-1.53,4.94,4.94,0,0,1-.52-2.33,4.87,4.87,0,0,1,.52-2.32,3.57,3.57,0,0,1,1.5-1.53,4.9,4.9,0,0,1,4.95.28.88.88,0,0,1,.3.31,1,1,0,0,1,.09.44,1,1,0,0,1-.21.64.65.65,0,0,1-.52.26.79.79,0,0,1-.32-.06,1.53,1.53,0,0,1-.34-.17,4,4,0,0,0-.8-.37,2.88,2.88,0,0,0-.78-.11,2,2,0,0,0-1.61.65,4,4,0,0,0,0,4,2,2,0,0,0,1.61.65,2.06,2.06,0,0,0,.7-.12,8.28,8.28,0,0,0,.88-.35l.37-.19a.85.85,0,0,1,.29,0,.62.62,0,0,1,.52.26,1,1,0,0,1,.21.63.82.82,0,0,1-.39.76,5,5,0,0,1-4.95.28Z"/><path class="cls-1" d="M190.22,72.8a.94.94,0,0,1,.17.57.79.79,0,0,1-.47.74,4.29,4.29,0,0,1-1,.35,4.45,4.45,0,0,1-1,.14,3.77,3.77,0,0,1-1.73-.38A2.7,2.7,0,0,1,185,73.14a3.25,3.25,0,0,1-.4-1.65,3.3,3.3,0,0,1,.38-1.61,2.7,2.7,0,0,1,1.07-1.1,3,3,0,0,1,1.55-.4,2.81,2.81,0,0,1,1.46.37,2.38,2.38,0,0,1,1,1,3.35,3.35,0,0,1,.35,1.56.66.66,0,0,1-.13.44.45.45,0,0,1-.37.15h-3.2a1.32,1.32,0,0,0,.37.84A1.28,1.28,0,0,0,188,73a2,2,0,0,0,.56-.07,4.55,4.55,0,0,0,.57-.18,2.6,2.6,0,0,1,.36-.13,1,1,0,0,1,.32-.06A.58.58,0,0,1,190.22,72.8ZM187,70.11a1.3,1.3,0,0,0-.31.8h1.91c-.05-.71-.36-1.07-.92-1.07A.88.88,0,0,0,187,70.11Z"/><path class="cls-1" d="M197,69a3,3,0,0,1,.52,1.94v2.62a1,1,0,0,1-.29.73,1.16,1.16,0,0,1-.79.26,1.17,1.17,0,0,1-.79-.26,1,1,0,0,1-.29-.73V71.05a1.23,1.23,0,0,0-.19-.77.64.64,0,0,0-.56-.25,1,1,0,0,0-.77.31,1.2,1.2,0,0,0-.29.83v2.41a.92.92,0,0,1-.29.73,1.16,1.16,0,0,1-.79.26,1.17,1.17,0,0,1-.79-.26,1,1,0,0,1-.29-.73v-4.2a.89.89,0,0,1,.3-.7,1.17,1.17,0,0,1,.79-.27,1,1,0,0,1,.74.25.87.87,0,0,1,.27.67,2,2,0,0,1,.82-.7,2.34,2.34,0,0,1,1.1-.25A2,2,0,0,1,197,69Z"/><path class="cls-1" d="M203.09,73.76a.7.7,0,0,1-.33.63,1.5,1.5,0,0,1-.93.17l-.34,0a2.56,2.56,0,0,1-1.66-.66,2.24,2.24,0,0,1-.56-1.61V70.12h-.36c-.64,0-1-.27-1-.8s.33-.79,1-.79h.36v-.79a1,1,0,0,1,.29-.74,1.11,1.11,0,0,1,.79-.27,1.13,1.13,0,0,1,.79.27,1,1,0,0,1,.29.74v.79h.67c.64,0,1,.26,1,.79s-.33.8-1,.8h-.67v2.33a.6.6,0,0,0,.14.39.51.51,0,0,0,.36.17l.35,0C202.82,73.06,203.09,73.31,203.09,73.76Z"/><path class="cls-1" d="M209,72.8a.88.88,0,0,1,.18.57.8.8,0,0,1-.48.74,4.38,4.38,0,0,1-1,.35,4.52,4.52,0,0,1-1,.14,3.84,3.84,0,0,1-1.74-.38,2.7,2.7,0,0,1-1.14-1.08,3.36,3.36,0,0,1-.4-1.65,3.42,3.42,0,0,1,.38-1.61,2.83,2.83,0,0,1,1.07-1.1,3,3,0,0,1,1.55-.4,2.82,2.82,0,0,1,1.47.37,2.44,2.44,0,0,1,1,1,3.35,3.35,0,0,1,.34,1.56.72.72,0,0,1-.12.44.48.48,0,0,1-.38.15h-3.2a1.32,1.32,0,0,0,.38.84,1.26,1.26,0,0,0,.86.25,2,2,0,0,0,.56-.07,4.55,4.55,0,0,0,.57-.18,2.6,2.6,0,0,1,.36-.13,1,1,0,0,1,.32-.06A.56.56,0,0,1,209,72.8Zm-3.21-2.69a1.3,1.3,0,0,0-.3.8h1.9c0-.71-.35-1.07-.92-1.07A.9.9,0,0,0,205.76,70.11Z"/><path class="cls-1" d="M214.6,68.6a.86.86,0,0,1,.24.66,1,1,0,0,1-.22.7,1.34,1.34,0,0,1-.81.28l-.36,0a1.27,1.27,0,0,0-.87.38,1.24,1.24,0,0,0-.26.84v2.08a.94.94,0,0,1-.31.75,1.22,1.22,0,0,1-.77.24,1.2,1.2,0,0,1-.77-.24.91.91,0,0,1-.31-.75v-4.2a.87.87,0,0,1,.31-.72,1.11,1.11,0,0,1,.74-.25,1.09,1.09,0,0,1,.73.24.87.87,0,0,1,.27.68v.23a1.62,1.62,0,0,1,.64-.83,1.87,1.87,0,0,1,.92-.31h.17A.8.8,0,0,1,214.6,68.6Z"/></g></g></svg>